<svg width="24" height="24" viewBox="0 0 24 24" fill="none" xmlns="http://www.w3.org/2000/svg">
<path fill-rule="evenodd" clip-rule="evenodd" d="M12 3.51693C7.3148 3.51693 3.51693 7.3148 3.51693 12C3.51693 16.6852 7.3148 20.4831 12 20.4831C16.6852 20.4831 20.4831 16.6852 20.4831 12C20.4831 7.3148 16.6852 3.51693 12 3.51693ZM1.82031 12C1.82031 6.37784 6.37784 1.82031 12 1.82031C17.6222 1.82031 22.1797 6.37784 22.1797 12C22.1797 17.6222 17.6222 22.1797 12 22.1797C6.37784 22.1797 1.82031 17.6222 1.82031 12Z" fill="white"/>
<path fill-rule="evenodd" clip-rule="evenodd" d="M9.95662 21.108C9.87461 21.0019 9.87461 20.0583 9.95662 18.2772C9.07805 18.3077 8.52283 18.2468 8.29096 18.0943C7.94358 17.8657 7.59535 17.1612 7.28699 16.6645C6.97863 16.1678 6.2932 16.0894 6.01665 15.9782C5.7401 15.8675 5.67054 15.415 6.77886 15.7568C7.88717 16.0991 7.94104 17.0314 8.29096 17.249C8.64089 17.467 9.4769 17.372 9.85567 17.1973C10.2344 17.0225 10.2064 16.3727 10.2743 16.1152C10.3596 15.8747 10.0584 15.8213 10.0521 15.8196C9.68176 15.8196 7.73872 15.3967 7.20471 13.5152C6.67112 11.6332 7.35867 10.4032 7.72557 9.87467C7.96988 9.52177 7.94825 8.77046 7.66067 7.62072C8.70579 7.48668 9.5121 7.81554 10.0796 8.6073C10.0805 8.61154 10.8244 8.16491 11.9998 8.16491C13.1751 8.16491 13.5925 8.52883 13.9144 8.6073C14.2363 8.68577 14.4938 7.22201 16.4818 7.62072C16.0665 8.43636 15.7192 9.45561 15.9843 9.87467C16.2498 10.2933 17.2907 11.6252 16.6515 13.5152C16.2248 14.7749 15.3865 15.5431 14.1366 15.8196C13.9936 15.8654 13.922 15.9392 13.922 16.041C13.922 16.1937 14.1154 16.2103 14.3945 16.9258C14.5812 17.4025 14.5947 18.7648 14.4353 21.0125C14.0317 21.1152 13.7179 21.1842 13.4936 21.2195C13.0962 21.2819 12.6644 21.3171 12.2403 21.3302C11.8161 21.3438 11.6689 21.3425 11.0823 21.2878C10.7035 21.2532 10.3274 21.1931 9.95662 21.108Z" fill="white"/>
</svg>
