<svg width="24" height="24" viewBox="0 0 24 24" fill="none" xmlns="http://www.w3.org/2000/svg">
<path d="M12 2C17.523 2 22 6.477 22 12C22 17.523 17.523 22 12 22C6.477 22 2 17.523 2 12C2 6.477 6.477 2 12 2ZM12 4C9.87827 4 7.84344 4.84285 6.34315 6.34315C4.84285 7.84344 4 9.87827 4 12C4 14.1217 4.84285 16.1566 6.34315 17.6569C7.84344 19.1571 9.87827 20 12 20C14.1217 20 16.1566 19.1571 17.6569 17.6569C19.1571 16.1566 20 14.1217 20 12C20 9.87827 19.1571 7.84344 17.6569 6.34315C16.1566 4.84285 14.1217 4 12 4ZM16.152 8.295C16.5959 8.29127 17.0361 8.37677 17.4464 8.54643C17.8566 8.71609 18.2286 8.96645 18.5402 9.28265C18.8519 9.59885 19.0968 9.97444 19.2604 10.3871C19.4241 10.7998 19.5032 11.2412 19.493 11.685C19.5068 12.1303 19.4304 12.5738 19.2685 12.9889C19.1066 13.404 18.8625 13.7821 18.5508 14.1005C18.2391 14.4189 17.8664 14.671 17.4548 14.8417C17.0433 15.0124 16.6015 15.0983 16.156 15.094H16.018C15.4188 15.072 14.8361 14.8919 14.329 14.572C14.1338 14.4504 13.9483 14.314 13.774 14.164L13.248 17.394H11.731L12.531 12.835C11.848 11.835 11.343 10.723 11.037 9.551V11.729C11.037 13.707 9.777 15.089 7.979 15.089C7.55585 15.0997 7.1353 15.0199 6.74552 14.8549C6.35575 14.6898 6.00575 14.4434 5.719 14.132C5.1305 13.4587 4.82206 12.5856 4.857 11.692V8.47H6.351V11.692C6.351 12.867 6.942 13.732 7.982 13.732C9.022 13.732 9.552 12.863 9.552 11.692V8.47H12.152C12.325 9.261 12.589 10.031 12.939 10.763C13.0896 10.0839 13.4595 9.47315 13.9915 9.02498C14.5235 8.57682 15.1882 8.31609 15.883 8.283L16.152 8.295ZM16.16 9.645C15.108 9.645 14.312 10.322 14.04 12.5C14.2524 12.8388 14.5381 13.1256 14.8761 13.3392C15.2142 13.5527 15.5958 13.6877 15.993 13.734L16.16 13.724C17.196 13.724 18.012 12.908 18.013 11.684C18.013 10.461 17.213 9.644 16.16 9.644" fill="white"/>
</svg>
