<svg width="134" height="95" viewBox="0 0 134 95" fill="none" xmlns="http://www.w3.org/2000/svg">
<path d="M65.901 0C78.9231 0.758338 89.0388 6.14254 94.9271 17.7072C100.815 29.3098 100.023 40.9123 92.5869 51.7566C90.5486 54.752 88.4349 57.6716 88.2084 61.4254C87.7932 68.0988 92.5869 74.0138 99.1545 74.9238C105.76 75.8338 112.026 71.3975 113.498 64.8C114.668 59.3779 112.554 54.1454 107.685 51.112C105.307 49.6332 104.439 47.8891 105.118 45.1211C105.911 41.9361 106.364 38.6752 107.006 35.4523C107.723 31.8123 109.61 30.6748 113.12 32.0019C122.783 35.7177 128.898 42.884 131.955 52.6287C138.032 72.0421 124.859 92.0243 104.703 94.3752C84.7736 96.6881 67.524 80.4218 68.6564 60.3258C68.9961 54.4108 71.0721 49.0266 74.2804 44.0594C75.7902 41.6707 77.3755 39.2819 78.4324 36.6657C81.6407 28.7789 75.4883 22.0297 70.2794 20.3235C63.5608 18.1243 56.0495 21.916 54.1245 28.5894C53.0299 32.381 54.1245 36.0969 54.8416 39.8128C55.8985 45.4624 57.1441 51.0741 58.0877 56.7237C60.5412 71.3975 52.2372 83.4172 41.0269 89.2564C27.6273 96.271 10.7929 92.7448 1.24339 80.9147C-0.568385 78.6397 -0.417403 76.7438 1.80957 74.848C4.45173 72.573 7.0939 70.3359 9.73607 68.0988C12.4915 65.7858 14.0768 65.8996 16.4547 68.5538C22.192 74.9238 31.6283 74.7342 36.6484 68.1746C39.1396 64.8758 39.3661 61.1979 38.6112 57.3683C37.5166 51.7187 36.271 46.1449 35.1386 40.4953C33.5533 32.4948 33.4401 24.6081 37.6675 17.2901C43.9333 6.37004 53.5205 0.720421 65.901 0Z" fill="white"/>
</svg>
