<svg width="124" height="64" viewBox="0 0 124 64" fill="none" xmlns="http://www.w3.org/2000/svg">
<g clip-path="url(#clip0_1023_565)">
<path d="M80.4531 0.439941H78.5076C78.3036 0.439941 78.1382 0.606889 78.1382 0.812829V29.652C78.1382 29.8579 78.3036 30.0249 78.5076 30.0249H80.4531C80.6571 30.0249 80.8225 29.8579 80.8225 29.652V0.812829C80.8225 0.606889 80.6571 0.439941 80.4531 0.439941Z" fill="white"/>
<path d="M40.4003 36.0655L40.3506 36.063V35.8145H40.4451V36.063L40.4003 36.0655Z" fill="white"/>
<path d="M46.3501 52.9725C41.7277 52.9725 38.3735 49.1417 38.3735 43.8616C38.3735 38.5815 41.8016 34.2759 46.3501 34.2759C50.8987 34.2759 54.3267 38.3975 54.3267 43.8616C54.3267 49.3256 50.9725 52.9725 46.3501 52.9725ZM46.3501 36.6027C43.6412 36.6027 41.5972 39.1582 41.5972 42.549C41.5972 45.7061 43.5525 47.9111 46.3501 47.9111C49.1477 47.9111 51.1031 45.7061 51.1031 42.549C51.1031 39.1035 49.1034 36.6027 46.3501 36.6027Z" fill="white"/>
<path d="M53.0581 4.94194C53.0581 5.14579 52.8906 5.31483 52.6887 5.31483H42.9365C42.8011 5.31483 42.6903 5.4267 42.6903 5.56342V9.08845C42.6903 9.22518 42.8011 9.33705 42.9365 9.33705H51.2973C51.4992 9.33705 51.6667 9.50609 51.6667 9.70993V13.839C51.6667 14.0429 51.4992 14.2119 51.2973 14.2119H42.9365C42.8011 14.2119 42.6903 14.3238 42.6903 14.4605V16.2678C42.6903 16.4045 42.8011 16.5164 42.9365 16.5164H52.6887C52.8906 16.5164 53.0581 16.6854 53.0581 16.8893V18.4529C53.0581 18.6568 52.8906 18.8258 52.6887 18.8258H40.4221C40.2202 18.8258 40.0527 18.6568 40.0527 18.4529V0.812829C40.0527 0.608984 40.2202 0.439941 40.4221 0.439941H52.6887C52.8906 0.439941 53.0581 0.608984 53.0581 0.812829V4.94194Z" fill="white"/>
<path d="M123.774 29.5376L118.908 11.0672C118.846 10.8336 118.986 10.5924 119.218 10.5328C121.545 9.87649 123.168 7.84798 123.168 5.59574C123.168 2.75185 120.678 0.439941 117.617 0.439941H109.215C109.013 0.439941 108.845 0.608984 108.845 0.812829V18.4529C108.845 18.6592 109.01 18.8258 109.215 18.8258H110.99C111.261 18.8258 111.483 18.617 111.483 18.3585V12.176C111.483 12.074 111.566 11.9821 111.68 11.9622L115.78 11.2015C116.012 11.1592 116.233 11.3109 116.28 11.5421L119.935 29.6992C120.011 29.8881 120.247 30.0224 120.435 30.0224H123.493C123.781 30.0224 123.853 29.7266 123.774 29.5351V29.5376ZM111.749 8.46946C111.675 8.47443 111.601 8.44957 111.549 8.40234C111.507 8.36257 111.483 8.30788 111.483 8.25319V5.53359C111.483 5.41427 111.594 5.31483 111.729 5.31483H118.785C119.531 5.31483 120.139 5.87416 120.139 6.56028V6.73429C120.139 7.4204 119.531 7.97974 118.777 7.97974L111.749 8.46946Z" fill="white"/>
<path d="M29.2612 34.7879C29.2612 34.5841 29.4262 34.415 29.6306 34.415H31.5761C31.7805 34.415 31.9455 34.5816 31.9455 34.7879V58.2699C31.916 60.373 30.7437 63.9254 26.5523 63.9254H25.417C22.0998 63.9254 20.2725 61.8695 20.2725 58.1357V56.9748C20.2725 56.5298 20.6591 56.1668 21.1344 56.1668H21.5013C21.9766 56.1668 22.3633 56.5298 22.3633 56.9748V57.1065C22.3633 58.6055 23.8877 58.9212 25.1658 58.9212H26.2912C28.2811 58.9212 29.2243 58.2625 29.2587 56.843V34.7904L29.2612 34.7879Z" fill="white"/>
<path d="M72.7743 18.4529C72.7743 18.6568 72.6093 18.8258 72.4049 18.8258H62.4581H61.116C60.9116 18.8258 60.7466 18.6568 60.7466 18.4529V0.812829C60.7466 0.608984 60.9116 0.439941 61.116 0.439941H63.0615C63.2659 0.439941 63.4309 0.608984 63.4309 0.812829V13.7023C63.4309 13.839 63.5417 13.9509 63.6772 13.9509H72.4049C72.6093 13.9509 72.7743 14.12 72.7743 14.3238V18.4529Z" fill="white"/>
<path d="M80.4531 34.415H78.5076C78.3036 34.415 78.1382 34.582 78.1382 34.7879V63.6271C78.1382 63.833 78.3036 64 78.5076 64H80.4531C80.6571 64 80.8225 63.833 80.8225 63.6271V34.7879C80.8225 34.582 80.6571 34.415 80.4531 34.415Z" fill="white"/>
<path d="M72.7743 52.428C72.7743 52.6343 72.6093 52.8009 72.4049 52.8009H62.4581H61.116C60.9116 52.8009 60.7466 52.6343 60.7466 52.428V34.7879C60.7466 34.5841 60.9116 34.415 61.116 34.415H63.0615C63.2659 34.415 63.4309 34.5841 63.4309 34.7879V47.6774C63.4309 47.8141 63.5417 47.926 63.6772 47.926H72.4049C72.6093 47.926 72.7743 48.0926 72.7743 48.2989V52.428Z" fill="white"/>
<path d="M7.30685 0.435036L0.0247383 18.3386C-0.0516044 18.5276 0.0542903 18.8259 0.26608 18.8259H2.33226C2.5145 18.8259 2.73614 18.8134 2.81248 18.6245L4.26053 15.0721H12.0869L18.081 29.7937C18.1574 29.9827 18.3741 30.0249 18.5637 30.0249H20.5979C20.886 30.0249 20.9574 29.7291 20.8786 29.5377L9.03072 0.440008C8.93221 0.196388 8.59483 0 8.16632 0C7.73782 0 7.40536 0.178986 7.30439 0.435036M6.38581 9.85418L7.94714 6.0209C8.03087 5.81457 8.31901 5.81457 8.40274 6.0209L9.96407 9.85418C10.0306 10.0183 9.91235 10.1972 9.7375 10.1972H6.61484C6.43999 10.1972 6.31932 10.0183 6.38827 9.85418H6.38581Z" fill="white"/>
<path d="M34.2436 4.94194C34.2436 5.14579 34.0761 5.31483 33.8742 5.31483H28.6829C28.5474 5.31483 28.4366 5.4267 28.4366 5.56342V29.652C28.4366 29.8558 28.2691 30.0249 28.0672 30.0249H26.1217C25.9197 30.0249 25.7523 29.8558 25.7523 29.652V5.56342C25.7523 5.4267 25.6415 5.31483 25.506 5.31483H20.3147C20.1128 5.31483 19.9453 5.14579 19.9453 4.94194V0.812829C19.9453 0.608984 20.1128 0.439941 20.3147 0.439941H33.8742C34.0761 0.439941 34.2436 0.608984 34.2436 0.812829V4.94194Z" fill="white"/>
<path d="M101.556 4.94194C101.556 5.14579 101.391 5.31483 101.186 5.31483H91.4341C91.2986 5.31483 91.1878 5.4267 91.1878 5.56342V9.08845C91.1878 9.22518 91.2986 9.33705 91.4341 9.33705H99.7948C99.9992 9.33705 100.164 9.50609 100.164 9.70993V13.839C100.164 14.0429 99.9992 14.2119 99.7948 14.2119H91.4341C91.2986 14.2119 91.1878 14.3238 91.1878 14.4605V16.2678C91.1878 16.4045 91.2986 16.5164 91.4341 16.5164H101.186C101.391 16.5164 101.556 16.6854 101.556 16.8893V18.4529C101.556 18.6568 101.391 18.8258 101.186 18.8258H88.9197C88.7153 18.8258 88.5503 18.6568 88.5503 18.4529V0.812829C88.5503 0.608984 88.7153 0.439941 88.9197 0.439941H101.186C101.391 0.439941 101.556 0.608984 101.556 0.812829V4.94194Z" fill="white"/>
<path d="M101.556 38.917C101.556 39.1234 101.391 39.2899 101.186 39.2899H91.4341C91.2986 39.2899 91.1878 39.4018 91.1878 39.5385V43.0636C91.1878 43.2003 91.2986 43.3121 91.4341 43.3121H99.7948C99.9992 43.3121 100.164 43.4787 100.164 43.685V47.8141C100.164 48.0205 99.9992 48.187 99.7948 48.187H91.4341C91.2986 48.187 91.1878 48.2989 91.1878 48.4356V50.2429C91.1878 50.3796 91.2986 50.4915 91.4341 50.4915H101.186C101.391 50.4915 101.556 50.658 101.556 50.8644V52.428C101.556 52.6343 101.391 52.8009 101.186 52.8009H88.9197C88.7153 52.8009 88.5503 52.6343 88.5503 52.428V34.7879C88.5503 34.5841 88.7153 34.415 88.9197 34.415H101.186C101.391 34.415 101.556 34.5841 101.556 34.7879V38.917Z" fill="white"/>
</g>
<defs>
<clipPath id="clip0_1023_565">
<rect width="123.803" height="64" fill="white"/>
</clipPath>
</defs>
</svg>
