<svg width="97" height="36" viewBox="0 0 97 36" fill="none" xmlns="http://www.w3.org/2000/svg">
<g clip-path="url(#clip0_1020_646)">
<path d="M59.5429 4.49641L60.4097 6.00215L61.2671 7.49154L61.2741 7.50323L62.9983 10.4984L63.865 12.0041H69.0376L69.0446 11.9924L69.0516 12.0041L72.4977 17.9897L72.5047 18.0037L75.9484 23.9893L75.9577 24.0033L79.4015 29.9889L79.4108 30.0029L82.8545 35.9885L82.8638 36.0025H89.7513L89.7583 35.9885L89.7676 36.0025H96.6551L96.6644 35.9885L93.2207 30.0029H93.2043L93.2137 29.9889L89.7699 24.0033H89.7536L89.7629 23.9893L86.3192 18.0037H86.3029L86.3122 17.9897L82.8662 12.0041H82.8522L82.8592 11.9901L82.8662 12.0041H89.756L89.7629 11.9901L93.2067 6.00449L93.2137 5.9928L96.6597 0.00488281H56.9683L57.6649 1.21369L57.8257 1.49426L57.8327 1.50362L59.5569 4.49874M86.3215 6.00449H86.3076L86.3146 5.99046L86.3215 6.00449ZM79.4178 6.00449H79.4015L79.4084 5.99046L79.4178 6.00449ZM65.5939 6.00449L65.6009 5.9928L65.6079 6.00449H65.5939ZM72.5047 5.9928L72.5117 6.00449H72.4977L72.5047 5.9928ZM75.9554 11.9924L75.9624 12.0041H75.9484L75.9554 11.9924ZM79.4084 17.992L79.4178 18.0061H79.4015L79.4108 17.992H79.4084ZM82.8615 23.9916L82.8685 24.0057H82.8522L82.8615 23.9916ZM86.3052 30.0053L86.3146 29.9912L86.3215 30.0053H86.3052Z" fill="white"/>
<path d="M51.7725 30.0004L51.7818 29.9864L48.3381 24.0008H48.3218L48.3311 23.9867L44.8874 18.0012H44.871L44.878 17.9871L41.4343 11.9992H41.4203L41.4273 11.9875L37.9813 5.99961H37.9673L37.9743 5.98792C35.8423 2.28338 31.8906 0 27.6164 0C23.3433 0 19.3926 2.28239 17.2606 5.98558L17.2699 5.99961H17.2536L13.8099 11.9852L13.8169 11.9992H13.8006L10.3568 17.9848L10.3638 17.9988H10.3475L6.90378 23.9844L6.9131 23.9984H6.89679L3.45305 29.984L3.46237 29.9981H3.44606L0 35.9836L0.00931998 36H6.89679L6.90611 35.986L6.91543 36H13.8029L13.8122 35.986L17.2559 30.0004L17.2629 29.9864L20.7067 24.0008L20.716 23.9867L24.1597 18.0012L24.169 17.9871L27.6151 12.0016L27.6221 11.9875L27.6291 12.0016L31.0751 17.9871L31.0821 18.0012L34.5259 23.9867L34.5352 24.0008L37.9789 29.9864L37.9882 30.0004L41.432 35.986L41.4413 36H48.3288L48.3358 35.986L48.3451 36H55.2325L55.2419 35.986L51.7981 30.0004H51.7818H51.7725ZM10.3498 30.0004L10.3592 29.9864L10.3685 30.0004H10.3522H10.3498ZM13.8029 24.0008L13.8122 23.9867L13.8192 24.0008H13.8029ZM17.2559 18.0012L17.2653 17.9871L17.2723 18.0012H17.2559ZM20.709 11.9992L20.716 11.9852L20.723 11.9992H20.709ZM24.162 5.99961L24.169 5.98792L24.176 5.99961H24.162ZM31.0728 5.98792L31.0798 5.99961H31.0658L31.0728 5.98792ZM34.5259 11.9875L34.5329 11.9992H34.5189L34.5259 11.9875ZM37.9789 17.9871L37.9882 18.0012H37.9719L37.9813 17.9871H37.9789ZM41.432 23.9867L41.439 24.0008H41.4227L41.432 23.9867ZM44.8757 30.0004L44.8827 29.9864L44.892 30.0004H44.8757Z" fill="white"/>
<path d="M72.484 30.0004L72.4933 29.9864L69.0496 24.0008H69.0333L69.0426 23.9867L65.5989 18.0012H65.5826L65.5919 17.9871L62.1458 11.9992H62.1318L62.1388 11.9875L58.6951 5.99961H58.6788L58.6858 5.98558L55.2397 0H41.4182L39.7336 2.92732L38.8389 4.48217L39.7126 5.99961L40.5701 7.48899L40.577 7.50068L42.2919 10.4818L43.1657 11.9992L44.0231 13.4886L44.0301 13.5003L45.745 16.4791L46.6374 14.9242L48.3219 11.9992L48.3289 11.9875L48.3359 11.9992L51.782 17.9871L51.789 18.0012L55.235 23.9867L55.242 24.0008L58.6858 29.9864L58.6951 30.0004L62.1388 35.986L62.1481 36H69.0356L69.0449 35.986L69.0542 36H75.9417L75.951 35.986L72.505 30.0004H72.4887H72.484ZM44.8712 5.99961L44.8782 5.98792L44.8852 5.99961H44.8712ZM51.782 5.98558L51.789 5.99961H51.775L51.782 5.98558ZM55.235 11.9852L55.242 11.9992H55.2281L55.235 11.9852ZM58.6881 17.9871L58.6951 18.0012H58.6788L58.6881 17.9871ZM62.1388 23.9867L62.1481 24.0008H62.1318L62.1388 23.9867ZM65.5826 30.0004L65.5919 29.9864L65.6012 30.0004H65.5849H65.5826Z" fill="white"/>
</g>
<defs>
<clipPath id="clip0_1020_646">
<rect width="96.6575" height="36" fill="white"/>
</clipPath>
</defs>
</svg>
