<svg width="215" height="24" viewBox="0 0 215 24" fill="none" xmlns="http://www.w3.org/2000/svg">
<path d="M4.45228 0.0146484H0V22.8873H4.45228V0.0146484Z" fill="white"/>
<path d="M15.8754 0.097168L4.60547 11.4571L15.6389 22.8864H21.9278L10.8666 11.4571L22.1505 0.097168H15.8754Z" fill="white"/>
<path d="M33.8931 12H22.957V22.9427H33.8931V12Z" fill="white"/>
<path d="M57.4769 22.9014L34.8255 0.209473H22.6372L45.3025 22.9014H57.4769Z" fill="white"/>
<path d="M78.2915 0V16.1708L62.9309 0H58.8682V22.9005H62.9309V6.6463L78.2915 22.9005H82.3543V0H78.2915Z" fill="white"/>
<path d="M128.144 4.60235V0H110.014V22.9005H114.091V13.7375H128.144V9.16299H114.091V4.60235H128.144Z" fill="white"/>
<path d="M150.823 4.60235V0H132.68V22.9005H136.771V13.7375H150.823V9.16299H136.771V4.60235H150.823Z" fill="white"/>
<path d="M105.145 4.60235V0H87.002V22.9005H105.145V18.2982H91.0786V13.7375H105.145V9.16299H91.0786V4.60235H105.145Z" fill="white"/>
<path d="M167.362 21.3566C166.208 22.5107 164.858 23.0947 163.314 23.0947C162.353 23.0947 161.463 22.9 160.628 22.5246C159.793 22.1492 159.056 21.6208 158.444 20.9534C157.818 20.286 157.331 19.4934 156.969 18.5896C156.607 17.6858 156.426 16.6986 156.426 15.6558C156.426 14.6547 156.607 13.7231 156.969 12.8471C157.331 11.9712 157.832 11.1925 158.458 10.539C159.098 9.88549 159.835 9.35711 160.698 8.96779C161.56 8.57847 162.493 8.38379 163.494 8.38379C164.858 8.38379 166.027 8.67577 167.001 9.24585C167.975 9.81593 168.712 10.5946 169.199 11.554L167.098 13.1113C166.736 12.3882 166.221 11.8321 165.554 11.4567C164.886 11.0813 164.176 10.8866 163.397 10.8866C162.785 10.8866 162.214 11.0117 161.713 11.2759C161.199 11.5401 160.767 11.8877 160.406 12.3326C160.044 12.7776 159.766 13.306 159.571 13.89C159.376 14.4739 159.279 15.0996 159.279 15.7531C159.279 16.4066 159.39 17.0741 159.612 17.658C159.835 18.2559 160.127 18.7704 160.517 19.2014C160.893 19.6324 161.352 19.9801 161.88 20.2304C162.409 20.4806 162.98 20.6058 163.592 20.6058C164.997 20.6058 166.263 19.9384 167.404 18.6174V17.5885H164.482V15.5307H169.742V22.9973H167.404V21.3566H167.362Z" fill="white"/>
<path d="M180.177 23.0949C179.119 23.0949 178.145 22.8863 177.283 22.4691C176.42 22.052 175.669 21.4958 175.057 20.8145C174.43 20.1332 173.957 19.3407 173.61 18.4508C173.262 17.5609 173.095 16.6571 173.095 15.7255C173.095 14.7939 173.276 13.8345 173.637 12.9446C173.999 12.0547 174.5 11.2761 175.126 10.5948C175.766 9.91347 176.517 9.37122 177.38 8.968C178.257 8.56477 179.203 8.37012 180.218 8.37012C181.234 8.37012 182.222 8.57867 183.099 9.00971C183.961 9.44074 184.699 9.99691 185.325 10.6921C185.951 11.3873 186.41 12.1799 186.758 13.0698C187.106 13.9596 187.273 14.8495 187.273 15.7672C187.273 16.7405 187.092 17.6582 186.744 18.5342C186.382 19.4102 185.895 20.1888 185.269 20.8701C184.643 21.5515 183.892 22.0798 183.015 22.4831C182.139 22.8863 181.192 23.0809 180.177 23.0809V23.0949ZM175.961 15.7394C175.961 16.3651 176.058 16.9769 176.253 17.5609C176.448 18.1449 176.726 18.6593 177.088 19.1182C177.45 19.5631 177.895 19.9246 178.424 20.2027C178.952 20.4808 179.551 20.606 180.218 20.606C180.886 20.606 181.499 20.4669 182.027 20.1888C182.556 19.9108 183.001 19.5353 183.363 19.0765C183.725 18.6176 184.003 18.0893 184.184 17.5192C184.365 16.9352 184.462 16.3512 184.462 15.7533C184.462 15.1555 184.365 14.5159 184.17 13.9319C183.975 13.3479 183.697 12.8334 183.335 12.3745C182.973 11.9157 182.528 11.5681 181.999 11.3039C181.471 11.0397 180.886 10.9007 180.232 10.9007C179.578 10.9007 178.938 11.0398 178.41 11.3178C177.881 11.5959 177.436 11.9713 177.074 12.4163C176.712 12.8751 176.448 13.3896 176.267 13.9736C176.086 14.5576 175.989 15.1415 175.989 15.7394H175.961Z" fill="white"/>
<path d="M190.988 22.9835V8.46729H193.813V20.5085H201.215V22.9835H190.988Z" fill="white"/>
<path d="M204.916 22.9835V8.46729H214.669V10.9423H207.74V14.6825H214.669V16.9768H207.74V22.9835H204.916Z" fill="white"/>
</svg>
