<svg width="126" height="48" viewBox="0 0 126 48" fill="none" xmlns="http://www.w3.org/2000/svg">
<g clip-path="url(#clip0_1016_534)">
<path d="M42.4469 7.87255C47.9933 7.56357 52.3282 10.3982 55.6938 15.0329C57.2689 17.1824 56.9592 19.2109 54.6707 20.5543C50.8204 22.8247 46.9029 24.9741 42.9584 27.0699C41.1949 28.0102 38.9601 27.2714 38.1659 25.6862C37.2235 23.8322 37.8966 21.6425 39.7409 20.6349C41.868 19.4662 43.995 18.3108 46.1086 17.1555C46.3913 16.9943 46.7952 16.9271 46.7414 16.4972C46.701 16.1076 46.3509 15.9733 46.0548 15.839C43.4969 14.6568 40.9391 14.7105 38.4216 15.9196C34.6522 17.7332 32.8079 21.3469 33.4137 25.5115C33.9252 28.9909 37.0754 32.0539 40.8718 32.6719C44.6008 33.2764 47.4952 31.8121 49.6223 28.8297C50.5916 27.4729 51.7493 26.7609 53.4321 26.949C55.5861 27.1908 57.04 29.3268 56.4611 31.4225C56.2457 32.2017 55.8823 32.9003 55.3976 33.5317C49.7973 40.6249 40.9929 41.7533 34.3022 38.0052C28.998 35.0363 26.2517 30.4015 25.9151 24.4905C25.6055 19.0228 28.0826 14.6568 32.2963 11.2714C35.1099 9.00101 38.3274 7.72477 42.4334 7.88598L42.4469 7.87255Z" fill="white"/>
<path d="M92.863 24.114C92.8361 33.182 85.7414 39.9796 76.439 40.0468C68.3077 40.1005 60.2572 32.7252 60.4053 23.7916C60.5534 15.2743 67.9038 7.69752 76.2639 7.68408C85.6337 7.68408 92.8899 14.8579 92.863 24.114ZM85.526 23.9528C85.5529 18.9956 81.6219 15.0325 76.6678 14.9922C71.9291 14.9519 67.7961 19.0628 67.7692 23.8319C67.7288 28.601 71.7945 32.6849 76.614 32.7252C81.4873 32.7521 85.5126 28.8025 85.526 23.9662V23.9528Z" fill="white"/>
<path d="M-5.23896e-05 19.9227C-5.23896e-05 14.6297 -0.0135147 9.33666 0.0134099 4.04363C0.0403346 1.0747 2.26162 -0.617996 4.92716 0.214918C6.13876 0.591072 6.93304 1.37025 7.24267 2.61962C7.47153 3.56001 7.56577 4.50039 7.56577 5.46765C7.56577 9.76656 7.56577 14.052 7.56577 18.3509C7.56577 19.9093 7.59269 20.0033 9.19471 19.8959C10.4871 19.8153 11.4295 20.2317 12.2641 21.199C14.6469 23.9933 16.8548 26.9219 19.1164 29.8102C22.1455 33.6792 25.1879 37.5483 28.2304 41.4173C29.092 42.5054 29.6036 43.7011 29.1997 45.1251C28.4054 48 25.1745 48.9672 23.1013 46.8312C21.5397 45.2191 20.2069 43.3786 18.8068 41.6188C15.5489 37.4945 12.3045 33.3703 9.04662 29.2326C8.87161 29.0042 8.68314 28.7758 8.48121 28.5608C8.31966 28.3728 8.13119 28.1175 7.8754 28.1981C7.52538 28.3056 7.57923 28.6683 7.57923 28.9504C7.57923 31.0327 7.57923 33.115 7.56577 35.1973C7.56577 35.8153 7.53885 36.4467 7.40422 37.0646C6.98689 39.0529 5.76182 40.0336 3.80978 40.0201C1.87121 39.9933 0.484591 38.8514 0.161495 36.9168C0.0403345 36.178 0.0134099 35.4257 0.0134099 34.6734C0.0134099 29.7565 0.0134099 24.8396 0.0134099 19.9227H-5.23896e-05Z" fill="white"/>
<path d="M110.593 27.5128C109.22 27.5128 107.833 27.4322 106.46 27.5262C101.6 27.8352 96.9689 22.3809 96.8881 18.0149C96.7939 12.9905 101.533 7.13326 107.537 7.69749C109.031 7.83183 110.552 7.69749 112.033 7.84526C113.878 8.04678 115.062 9.43049 115.13 11.2038C115.183 12.8293 114.012 14.3205 112.329 14.7504C110.929 15.1131 109.502 14.9519 108.089 14.9922C107.55 14.9922 106.998 14.9653 106.46 15.0459C105.181 15.234 104.252 16.2281 104.158 17.4775C104.064 18.5925 104.871 19.7747 106.002 20.1778C106.594 20.3927 107.227 20.433 107.86 20.433C110.485 20.433 113.124 20.3927 115.749 20.433C120.016 20.5136 123.234 22.3272 124.97 26.3171C126.653 30.1727 126.101 33.7462 123.261 36.8763C121.511 38.8108 119.276 39.899 116.664 40.0333C114.995 40.1139 113.326 40.0736 111.656 40.0333C109.489 39.993 108.062 38.5019 108.075 36.3658C108.075 34.3776 109.462 33.0342 111.629 32.9536C112.962 32.8998 114.308 33.0073 115.641 32.8998C118.118 32.7118 119.357 30.5757 118.118 28.7218C117.526 27.8218 116.61 27.5665 115.614 27.5396C113.945 27.5128 112.276 27.5396 110.606 27.5396L110.593 27.5128Z" fill="white"/>
<path d="M11.7662 16.0269C11.7124 15.3686 11.9547 14.7238 12.3451 14.1058C13.8529 11.7548 15.3472 9.40387 17.0435 7.20068C18.457 5.36021 20.5437 4.93032 22.1995 6.09908C23.9093 7.29472 24.2593 9.47104 23.0477 11.4055C21.5399 13.7968 19.9917 16.1747 18.2147 18.3778C17.1512 19.6944 15.603 20.0705 14.0548 19.5063C12.6413 18.9958 11.7932 17.733 11.7797 16.0269H11.7662Z" fill="white"/>
<path d="M118.616 14.2C118.643 12.2789 120.326 10.7474 122.372 10.8012C124.365 10.8549 125.899 12.4804 125.832 14.4956C125.778 16.2554 124.042 17.9615 122.305 17.9481C120.165 17.9481 118.576 16.336 118.603 14.2H118.616Z" fill="white"/>
<path d="M100.577 36.7692C98.5039 36.7692 97.0365 35.3183 97.023 33.2629C97.0096 31.4359 98.6924 29.7432 100.51 29.7432C102.435 29.7432 104.077 31.3956 104.104 33.3301C104.118 35.2243 102.543 36.7826 100.591 36.7692H100.577Z" fill="white"/>
</g>
<defs>
<clipPath id="clip0_1016_534">
<rect width="125.913" height="48" fill="white"/>
</clipPath>
</defs>
</svg>
