<svg width="155" height="42" viewBox="0 0 155 42" fill="none" xmlns="http://www.w3.org/2000/svg">
<g clip-path="url(#clip0_1026_534)">
<path d="M21.313 39.2928C18.9813 39.7033 16.6086 39.8264 14.1542 40.1542L6.66788 18.17V41.0977C4.33622 41.3438 2.20905 41.6719 0 42V0H6.21816L14.7268 23.8304V0H21.313V39.2928ZM34.199 15.3809C36.7355 15.3809 40.6217 15.2578 42.9533 15.2578V21.8201C40.0487 21.8201 36.6536 21.8201 34.199 21.9432V31.7051C38.0445 31.4591 41.8898 31.1307 45.7759 31.0076V37.3236L27.6536 38.7595V0H45.7759V6.56251H34.199V15.3809ZM70.116 6.56266H63.3254V36.7501C61.1163 36.7501 58.9073 36.7501 56.7804 36.8319V6.56266H49.9898V0H70.1163L70.116 6.56266ZM80.752 14.9298H89.7109V21.4922H80.752V36.381H74.329V0H92.6154V6.56251H80.752V14.9298ZM103.251 30.6387C106.974 30.7205 110.737 31.008 114.378 31.2128V37.6933C108.529 37.3239 102.679 36.9553 96.7062 36.8319V0H103.251V30.6387ZM119.901 38.1445C121.987 38.2678 124.196 38.3909 126.323 38.6366V0H119.901V38.1445ZM155 0L146.696 19.9747L155 42C152.545 41.6719 150.091 41.2207 147.636 40.8105L142.932 28.6701L138.146 39.8264C135.773 39.4159 133.482 39.2928 131.11 38.9647L139.537 19.7284L131.928 0H138.964L143.259 11.0332L147.841 0L155 0Z" fill="white"/>
</g>
<defs>
<clipPath id="clip0_1026_534">
<rect width="155" height="42" fill="white"/>
</clipPath>
</defs>
</svg>
