<svg width="230" height="39" viewBox="0 0 230 39" fill="none" xmlns="http://www.w3.org/2000/svg">
<g clip-path="url(#clip0_1020_662)">
<path d="M39.0759 17.1902C39.0891 17.7961 38.7668 18.1723 38.4066 18.1449C36.8184 18.0241 36.1037 19.3519 35.0199 20.0359C34.3292 20.4717 33.6756 20.6522 33.2074 20.0254C32.7244 19.3784 33.3624 19.0747 33.9245 18.8137C34.5781 18.5107 34.8616 18.0877 34.86 17.2402C34.8575 15.4346 36.3354 16.1694 37.2601 16.2266C37.9838 16.2717 38.8896 16.3273 39.0759 17.1902Z" fill="white"/>
<path d="M29.3345 26.1773C32.1962 26.5535 33.4161 27.7572 32.4542 29.2856C32.2135 29.6683 31.8121 30.1162 31.4107 30.2025C30.8329 30.3265 30.6928 29.7682 30.5428 29.2703C30.2189 28.1987 29.7993 27.1546 29.4185 26.0991L29.3353 26.1773H29.3345Z" fill="white"/>
<path d="M18.1575 4.25301C18.0232 4.95637 17.7858 5.59527 17.2212 5.29717C16.0038 4.65343 15.5002 3.45055 15.2917 2.15582C15.1903 1.52578 15.4722 0.705592 16.0994 0.869951C17.9136 1.3445 17.0168 3.46989 18.1567 4.25301H18.1575Z" fill="white"/>
<path d="M28.3148 12.48C27.1807 13.5684 28.5143 16.0201 26.1199 16.5414C25.6732 16.6389 25.285 16.0975 25.5372 15.5166C26.1661 14.0712 26.5106 12.4171 27.7486 11.3746C28.1978 10.9959 28.2242 11.9216 28.3148 12.48Z" fill="white"/>
<path d="M26.2271 30.125C27.4577 30.7236 27.7503 32.0159 28.2572 33.1181C28.5077 33.6636 27.897 34.1542 27.4585 34.0454C25.9946 33.6821 25.7614 32.3028 25.3468 31.1539C25.1564 30.6253 25.6485 30.3031 26.2279 30.125H26.2271Z" fill="white"/>
<path d="M16.0666 35.7409C15.5605 36.4539 16.1985 37.8381 14.841 38.0838C14.128 38.2127 13.8354 37.5722 13.8865 36.9268C13.9632 35.9705 13.9187 34.8305 15.1212 34.5412C15.7979 34.3785 16.1037 35.0174 16.0666 35.7409Z" fill="white"/>
<path d="M35.8603 22.9572C35.3073 24.0247 34.6322 23.8056 33.9943 23.5075C33.2434 23.157 32.0681 23.0313 32.3615 21.8518C32.6038 20.8769 33.4676 21.3144 34.0594 21.5456C34.8292 21.8462 35.6947 22.129 35.8603 22.9572Z" fill="white"/>
<path d="M6.41157 8.59263C6.08847 9.34675 5.53871 9.68271 4.75487 9.38703C4.06663 9.12679 2.93744 9.20817 3.02481 8.1495C3.0891 7.36477 3.90344 7.14401 4.65761 7.3261C5.40189 7.50576 6.25661 7.61372 6.41157 8.59263Z" fill="white"/>
<path d="M20.3196 31.0166C20.2627 31.7659 20.5413 32.814 19.4871 32.947C18.3299 33.0928 18.409 31.9995 18.4024 31.2784C18.3958 30.5444 18.2573 29.4737 19.2744 29.3512C20.4589 29.2086 20.2421 30.285 20.3196 31.0166Z" fill="white"/>
<path d="M37.129 10.7898C35.638 12.5913 33.4513 12.5913 32.4746 10.8164C32.243 10.3966 32.2718 10.0099 32.5521 9.75532C32.9782 9.36778 33.4431 9.43949 33.7415 9.99299C34.6432 11.1854 36.1416 9.94707 37.129 10.7898Z" fill="white"/>
<path d="M8.57741 2.5C9.58627 2.81744 10.1682 3.59331 10.4839 4.52871C10.6644 5.06368 10.2209 5.55917 9.7099 5.48425C8.62192 5.32472 8.05732 4.48601 7.77543 3.51999C7.61388 2.9673 7.99715 2.63535 8.57741 2.50081V2.5Z" fill="white"/>
<path d="M6.13282 24.1727C5.31518 24.0824 5.07121 23.6305 5.19896 23.1325C5.47014 22.0771 6.37184 21.5703 7.33867 21.2827C7.8431 21.1328 8.45385 21.4761 8.29313 22.0497C7.9791 23.1712 6.88452 23.6015 6.13282 24.1727Z" fill="white"/>
<path d="M22.5012 20.1016C21.6869 20.187 21.3391 19.7399 21.4454 19.2726C21.6655 18.305 22.5548 17.9609 23.4409 17.7893C23.9791 17.6854 24.4984 17.9964 24.35 18.5829C24.1052 19.5481 23.1038 19.7246 22.5012 20.1008V20.1016Z" fill="white"/>
<path d="M30.1914 18.1287C29.4842 18.2504 28.946 17.9531 29.0425 17.2449C29.1727 16.2885 30.217 16.3586 30.8879 16.0533C31.3585 15.839 31.933 15.959 32.0056 16.5947C32.1539 17.9007 30.9308 17.7388 30.1923 18.1279L30.1914 18.1287Z" fill="white"/>
<path d="M3.05673 17.5628C2.47564 17.6192 1.93165 17.3388 2.00583 16.828C2.13524 15.9442 2.97183 15.6638 3.77133 15.5188C4.37385 15.4092 4.78266 15.8056 4.77607 16.3221C4.76123 17.388 3.8076 17.3783 3.05673 17.5628Z" fill="white"/>
<path d="M28.9683 19.4776C29.7167 19.8159 30.9951 19.1384 31.0676 20.1479C31.1583 21.4096 30.0011 20.8093 29.2832 20.7868C28.651 20.7675 27.7221 21.2855 27.6124 20.251C27.5086 19.2689 28.2834 19.2536 28.9691 19.4776H28.9683Z" fill="white"/>
<path d="M35.3057 32.6722C35.1722 33.2652 34.7551 33.4803 34.2144 33.3474C33.4907 33.1701 32.9418 32.6996 32.8511 31.9608C32.786 31.425 33.1577 30.9633 33.7487 31.0858C34.5787 31.2582 35.0873 31.852 35.3057 32.6722Z" fill="white"/>
<path d="M13.2932 28.923C13.1366 29.6956 13.013 30.594 11.9983 30.6109C11.2038 30.6246 11.1148 29.8632 11.2516 29.2976C11.4296 28.558 11.6546 27.6645 12.722 27.7709C13.3624 27.8345 13.313 28.4323 13.2932 28.9222V28.923Z" fill="white"/>
<path d="M24.6846 23.6457C24.4736 24.5956 24.0639 25.2555 23.2521 25.4843C22.7303 25.6309 22.2317 25.2764 22.2531 24.739C22.2853 23.914 22.8004 23.3041 23.623 23.0745C24.1835 22.9182 24.4769 23.3098 24.6846 23.6465V23.6457Z" fill="white"/>
<path d="M2.40429 20.7439C2.05317 21.3957 1.74573 22.1627 0.7888 22.1015C0.264589 22.0677 -0.155769 21.7164 0.0568828 21.1444C0.326406 20.4201 0.769843 19.7409 1.67155 19.7272C2.26665 19.7183 2.41748 20.2009 2.40429 20.7439Z" fill="white"/>
<path d="M25.0538 0.841138C25.6555 0.906398 25.8904 1.29474 25.9152 1.82246C25.949 2.55563 25.7116 3.27913 24.9574 3.43543C24.3112 3.56998 23.8768 3.05596 23.9378 2.36549C23.9996 1.66293 24.2733 1.05948 25.0538 0.840332V0.841138Z" fill="white"/>
<path d="M4.09049 28.5855C3.51023 28.6008 3.00168 28.4784 3.02888 27.862C3.06844 26.958 3.74019 26.5173 4.557 26.3465C4.96087 26.2619 5.34084 26.4988 5.387 26.9556C5.48508 27.912 4.80015 28.2842 4.09049 28.5863V28.5855Z" fill="white"/>
<path d="M32.5701 6.2046C32.1382 6.10389 31.6899 6.02171 31.7855 5.50285C31.9586 4.5602 32.5973 3.95433 33.5139 3.73921C33.9194 3.64414 34.3002 4.04537 34.2458 4.46271C34.1205 5.42309 33.4669 5.96048 32.5701 6.20379V6.2046Z" fill="white"/>
<path d="M25.3312 36.388C26.0161 36.5113 26.2757 37.1035 26.3384 37.6336C26.4084 38.2234 26.0433 38.7922 25.3369 38.7954C24.5918 38.7994 24.3404 38.1178 24.2885 37.5853C24.2316 37.0044 24.5589 36.4589 25.3303 36.3872L25.3312 36.388Z" fill="white"/>
<path d="M26.8383 10.0614C26.9867 10.7913 26.6381 11.3593 25.9746 11.2602C25.0786 11.1265 25.175 10.3031 25.2599 9.60697C25.3226 9.08811 24.9583 8.26068 25.8822 8.2776C27.1483 8.30096 26.2688 9.59005 26.8392 10.0614H26.8383Z" fill="white"/>
<path d="M24.9823 7.17805C24.6914 6.30227 23.4031 6.23782 23.3256 5.17271C23.3017 4.8456 23.5828 4.22442 24.0279 4.46451C24.7301 4.84399 25.4282 5.37413 25.875 6.01062C26.1626 6.4199 25.6022 6.86867 24.9823 7.17724V7.17805Z" fill="white"/>
<path d="M8.97992 16.3222C8.90244 16.8451 8.58346 17.2358 8.06584 17.2334C7.554 17.231 7.146 16.8386 7.15342 16.327C7.16084 15.8259 7.55482 15.4093 8.06667 15.4077C8.57604 15.4061 8.90491 15.7977 8.97992 16.3222Z" fill="white"/>
<path d="M19.6907 11.9717C19.9644 12.6928 21.579 12.4511 21.0293 13.7345C20.937 13.9496 20.6155 14.2018 20.3913 14.2107C19.286 14.251 19.3198 13.3671 19.1657 12.6509C18.8904 12.0909 19.2135 11.9741 19.6907 11.9725V11.9717Z" fill="white"/>
<path d="M37.7314 27.0273C37.1973 26.9596 36.7711 26.7445 36.6945 26.1709C36.6088 25.5344 37.0654 25.2483 37.5805 25.254C38.207 25.2604 38.8194 25.561 38.8086 26.2732C38.7996 26.8452 38.2647 27.0063 37.7314 27.0273Z" fill="white"/>
<path d="M14.8887 17.542C14.8911 17.1262 15.0115 16.7242 15.4665 16.6533C16.3509 16.5155 16.7366 17.0916 16.8833 17.8175C16.9764 18.2816 16.6797 18.5096 16.1893 18.508C15.4986 18.5056 15.0494 18.2139 14.8887 17.542Z" fill="white"/>
<path d="M9.16633 9.6988C9.70785 9.80193 10.1389 10.1129 10.1562 10.6358C10.1843 11.4503 9.53806 11.5503 8.90752 11.4512C8.3866 11.369 7.95388 11.0499 8.06351 10.4674C8.16489 9.92842 8.59761 9.67946 9.16633 9.6988Z" fill="white"/>
<path d="M21.874 17.0167C21.7042 17.6669 21.2781 18.0754 20.5932 17.9965C20.0591 17.9344 19.6766 17.5775 19.8489 16.9716C19.9956 16.456 20.3871 16.1676 20.9377 16.1281C21.5798 16.0822 21.7974 16.4858 21.8749 17.0167H21.874Z" fill="white"/>
<path d="M3.44261 12.0659C3.23243 12.7692 2.63652 12.8361 2.04719 12.77C1.56749 12.7161 1.01278 12.5469 1.11416 11.908C1.23367 11.1547 1.89388 11.1289 2.47744 11.1845C2.96786 11.2312 3.43849 11.4238 3.44261 12.0659Z" fill="white"/>
<path d="M21.7258 9.2454C21.4068 9.72962 21.1743 10.3307 20.402 10.2106C19.9289 10.1365 19.685 9.78682 19.788 9.38962C19.9561 8.73943 20.5628 8.51384 21.1702 8.45583C21.7266 8.40266 21.7019 8.86834 21.7258 9.24621V9.2454Z" fill="white"/>
<path d="M20.3896 22.4414C20.4827 22.9602 20.2239 23.2414 19.8101 23.3542C19.2323 23.5121 18.8466 23.2285 18.7164 22.6895C18.6084 22.2391 18.9117 21.9346 19.3115 21.8121C19.9049 21.63 20.2074 21.9999 20.3896 22.4414Z" fill="white"/>
<path d="M18.3104 25.185C18.1455 25.6547 17.89 26.0768 17.3032 25.9504C16.8004 25.8416 16.4525 25.5129 16.6026 24.932C16.7081 24.5243 16.9949 24.2947 17.4284 24.2818C18.0491 24.2641 18.2156 24.6895 18.3104 25.185Z" fill="white"/>
<path d="M24.6831 14.9919C24.5562 15.4955 24.1499 15.6518 23.5976 15.5527C23.1534 15.4729 22.8641 15.1708 22.8954 14.7631C22.9366 14.2321 23.3256 13.8527 23.8754 13.9058C24.4054 13.9574 24.7417 14.3232 24.6831 14.9919Z" fill="white"/>
<path d="M27.9084 6.1749C27.3702 6.05485 26.8995 5.79784 27.1015 5.19841C27.2037 4.89548 27.6455 4.48538 27.9125 4.49989C28.3996 4.52647 28.8431 4.85358 28.7639 5.48362C28.7013 5.98073 28.2793 6.04679 27.9084 6.1749Z" fill="white"/>
<path d="M21.5542 4.83984C22.1065 4.84871 22.4147 5.1597 22.343 5.72529C22.2952 6.10476 22.0958 6.48505 21.6086 6.43429C21.1232 6.38434 20.5215 6.21998 20.5099 5.70676C20.4992 5.24832 20.9987 4.93894 21.5542 4.83984Z" fill="white"/>
<path d="M18.654 7.47603C18.6112 8.00859 18.3548 8.44366 17.7886 8.36712C17.4869 8.32683 17.0904 7.97797 16.994 7.68712C16.8275 7.18518 17.1465 6.74609 17.6798 6.65424C18.2683 6.55272 18.5081 6.99746 18.6548 7.47603H18.654Z" fill="white"/>
<path d="M18.2756 16.1328C17.8536 15.9967 17.5601 15.6494 17.6846 15.1282C17.8058 14.6246 18.1964 14.2693 18.7297 14.5166C18.9992 14.6415 19.2663 15.0653 19.2778 15.3642C19.2976 15.867 18.996 16.244 18.2747 16.1336L18.2756 16.1328Z" fill="white"/>
<path d="M12.6421 20.0318C12.5415 20.5402 12.2934 20.9519 11.7 20.8415C11.1906 20.7465 10.814 20.3549 10.9631 19.8433C11.0472 19.5557 11.4511 19.2124 11.7552 19.1641C12.3239 19.0739 12.572 19.5162 12.6421 20.0318Z" fill="white"/>
<path d="M40.0717 21.9663C39.4774 22.0807 39.1535 21.8865 39.0356 21.4547C38.8872 20.9124 39.0677 20.4782 39.662 20.3388C40.126 20.23 40.4228 20.5064 40.5728 20.9044C40.7945 21.4909 40.4681 21.8051 40.0708 21.9655L40.0717 21.9663Z" fill="white"/>
<path d="M16.3611 11.8048C16.8647 11.9337 17.5422 11.7976 17.2702 12.596C17.1317 13.0029 16.7732 13.2011 16.3454 13.1471C15.7594 13.073 15.4923 12.7185 15.5962 12.1335C15.6976 11.5639 16.0503 11.6453 16.3611 11.8048Z" fill="white"/>
<path d="M27.9983 23.0152C27.8838 23.3931 27.756 23.754 27.2714 23.8177C26.6482 23.899 26.3045 23.5736 26.2881 23.0265C26.2765 22.651 26.4826 22.2684 26.968 22.2047C27.5953 22.1225 27.8401 22.5181 27.9983 23.0144V23.0152Z" fill="white"/>
<path d="M14.1124 23.3328C14.0876 23.8742 13.8033 24.2416 13.2585 24.2746C12.6617 24.3117 12.3914 23.8831 12.4128 23.3698C12.4276 23.0081 12.5834 22.6262 13.0763 22.5674C13.6805 22.4949 13.9376 22.8566 14.1132 23.3328H14.1124Z" fill="white"/>
<path d="M34.479 13.8987C34.4872 14.453 34.2185 14.8776 33.6515 14.8244C33.3531 14.7962 32.9179 14.4336 32.8503 14.1525C32.7226 13.6175 33.1289 13.2573 33.6729 13.2187C34.1031 13.188 34.3957 13.458 34.479 13.8987Z" fill="white"/>
<path d="M14.9119 10.0434C14.977 10.7959 14.5493 11.1005 14.0828 11.1206C13.8124 11.1327 13.3945 10.7774 13.2709 10.4922C13.0401 9.96364 13.3912 9.59061 13.922 9.48345C14.4759 9.37227 14.7858 9.70099 14.9119 10.0426V10.0434Z" fill="white"/>
<path d="M8.24643 27.8589C7.667 27.8403 7.29692 27.4802 7.31093 26.9928C7.31835 26.7188 7.70574 26.3281 8.00823 26.2177C8.55222 26.0195 8.96352 26.3764 9.05006 26.8904C9.14072 27.4286 8.77394 27.7437 8.24643 27.8589Z" fill="white"/>
<path d="M27.3749 27.7813C26.7938 27.8877 26.4913 27.6766 26.3644 27.2625C26.1962 26.713 26.4048 26.3239 26.9908 26.1925C27.4483 26.0902 27.7458 26.315 27.8876 26.7299C28.0846 27.3084 27.7648 27.6137 27.3749 27.7813Z" fill="white"/>
<path d="M30.3005 7.17195C29.9576 7.06721 29.5529 6.7683 29.6609 6.23172C29.7631 5.72656 30.1702 5.44538 30.748 5.5485C31.1989 5.62907 31.4445 5.9449 31.3901 6.34613C31.325 6.82712 31.1082 7.27427 30.3005 7.17195Z" fill="white"/>
<path d="M30.6779 1.42341C30.5609 1.95597 30.2427 2.36606 29.674 2.21378C29.3674 2.1316 28.9644 1.71829 28.9438 1.43147C28.9042 0.865073 29.3682 0.59517 29.9427 0.641899C30.4059 0.679766 30.6244 0.988342 30.6779 1.42341Z" fill="white"/>
<path d="M23.3077 28.8016C23.3992 29.4816 23.0126 29.7741 22.5049 29.824C22.1356 29.8603 21.7474 29.6742 21.6666 29.2222C21.5694 28.6735 21.8389 28.2642 22.3417 28.128C22.9211 27.9709 23.1692 28.4076 23.3069 28.8016H23.3077Z" fill="white"/>
<path d="M16.6352 29.1035C17.2081 29.1664 17.4999 29.508 17.4504 30.0446C17.415 30.4264 17.2007 30.7672 16.7341 30.793C16.1687 30.8236 15.7393 30.5022 15.7113 30.0115C15.6832 29.5209 16.1094 29.1986 16.6352 29.1035Z" fill="white"/>
<path d="M24.3866 11.9208C24.286 12.3664 23.9571 12.6193 23.5401 12.6193C22.9376 12.6193 22.6565 12.2455 22.7323 11.6557C22.7892 11.2102 23.0868 10.8984 23.5195 10.9403C24.0544 10.9911 24.4072 11.3335 24.3866 11.9216V11.9208Z" fill="white"/>
<path d="M35.7797 8.52655C35.3362 8.5902 34.9719 8.4621 34.8524 8.01978C34.7008 7.46064 34.9365 7.02718 35.525 6.94017C36.1028 6.85476 36.491 7.21813 36.5198 7.76035C36.5413 8.16883 36.2396 8.46935 35.7788 8.52655H35.7797Z" fill="white"/>
<path d="M22.7658 36.0769C22.6347 36.5877 22.319 36.9398 21.7586 36.8447C21.2088 36.7512 20.8923 36.3363 21.1107 35.8118C21.2352 35.5137 21.6333 35.1294 21.9086 35.1294C22.4081 35.1294 22.7707 35.5016 22.765 36.0761L22.7658 36.0769Z" fill="white"/>
<path d="M29.4174 26.0992C28.6707 26.2346 27.8217 26.2056 27.8728 25.2952C27.914 24.566 28.6822 24.2526 29.4891 24.4121L29.4191 24.3501C29.3919 24.9592 29.3647 25.5675 29.3358 26.1774C29.3342 26.1774 29.4174 26.1 29.4174 26.1V26.0992Z" fill="white"/>
<path d="M20.4317 25.6576C20.5957 25.5424 20.8702 25.1999 21.1776 25.1693C21.6961 25.117 21.7159 25.6165 21.668 25.9621C21.6235 26.2876 21.6359 26.7936 21.0367 26.6752C20.6081 26.5898 20.393 26.3037 20.4317 25.6576Z" fill="white"/>
<path d="M40.4334 13.4572C40.2743 13.7561 40.1935 14.1871 39.6685 14.1106C39.2086 14.0437 39.0141 13.69 39.0404 13.3113C39.0668 12.9238 39.3017 12.5854 39.7954 12.645C40.2529 12.6998 40.4062 13.0253 40.4334 13.4572Z" fill="white"/>
<path d="M31.252 9.5456C31.0261 9.72446 30.7665 10.0927 30.4887 10.1064C30.2052 10.12 29.7601 9.84934 29.6398 9.58991C29.39 9.05091 29.9159 9.05494 30.2563 9.02754C30.6116 8.99854 31.0047 8.95181 31.2512 9.5456H31.252Z" fill="white"/>
<path d="M20.5618 0C20.7464 0.118435 21.2261 0.254595 21.3168 0.518859C21.4948 1.03772 21.1214 1.45989 20.584 1.48326C20.2766 1.49615 19.7549 1.25928 19.6807 1.02724C19.5307 0.556726 19.7672 0.115212 20.5609 0H20.5618Z" fill="white"/>
<path d="M7.88519 31.59C8.30225 31.7374 8.53551 32.0476 8.45886 32.4545C8.38468 32.8477 8.1168 33.1836 7.63628 33.07C7.22251 32.9717 6.95876 32.6462 7.04448 32.2265C7.12525 31.8293 7.41373 31.5578 7.88519 31.59Z" fill="white"/>
<path d="M25.4966 21.3996C25.4125 22.1602 25.3136 22.6009 24.8199 22.476C24.5124 22.3979 24.1118 22.0595 24.0558 21.7791C23.9453 21.2329 24.3509 20.8776 24.913 20.9275C25.3606 20.967 25.5089 21.3424 25.4966 21.3996Z" fill="white"/>
<path d="M19.6906 11.9717C19.5158 12.1981 19.3403 12.4245 19.1655 12.6501C18.5432 12.7178 17.9523 12.6453 18.0075 11.871C18.0281 11.585 18.385 11.1427 18.6529 11.0903C19.257 10.9735 19.7672 11.2015 19.6914 11.9709L19.6906 11.9717Z" fill="white"/>
<path d="M37.1288 10.7895C35.998 10.5309 34.5852 11.422 33.7412 9.99268C34.7484 10.7549 36.218 9.63254 37.1288 10.7895Z" fill="white"/>
<path d="M29.4894 24.412C29.0658 23.8481 29.0806 23.2913 29.7845 23.0577C30.2609 22.899 30.7999 23.1536 30.7208 23.7844C30.6203 24.5877 30.026 24.5353 29.4194 24.3508L29.4886 24.4129L29.4894 24.412Z" fill="white"/>
<path d="M13.5643 8.54824C13.5717 8.56596 13.3904 8.32023 13.3813 8.06886C13.3657 7.60479 13.758 7.36066 14.1462 7.33972C14.5492 7.31796 14.9506 7.56208 14.8806 8.03985C14.8114 8.51359 14.3564 8.50151 13.5643 8.54824Z" fill="white"/>
<path d="M160.878 20.6383H138.538C138.705 23.8038 140.453 25.5417 143.022 26.4553C147.018 27.8766 150.274 26.4932 152.996 23.2737C155.038 25.1107 157.005 26.8815 158.916 28.6017C155.912 34.9609 143.504 35.7964 137.306 32.784C129.997 29.2309 126.794 20.5586 129.863 12.3374C132.608 4.9807 140.611 1.09006 149.043 3.01322C157.12 4.85501 162.005 11.9216 160.878 20.6375L160.878 20.6383ZM151.002 14.6223C150.061 11.3432 148.154 10.0468 144.734 10.125C141.482 10.1991 139.682 11.5929 139.067 14.6223H151.002H151.002Z" fill="white"/>
<path d="M212.801 34.4782C203.21 34.1785 196.201 27.0498 196.578 17.9763C196.943 9.18788 204.376 2.39518 213.42 2.5829C222.929 2.78029 230.23 9.9565 229.994 18.8714C229.753 27.9586 222.246 34.7739 212.801 34.479V34.4782ZM205.925 18.6828C205.977 23.4211 209.314 27.0958 213.448 26.9661C217.446 26.8412 220.618 23.1431 220.622 18.6015C220.627 13.9084 217.322 10.145 213.215 10.166C209.086 10.1869 205.873 13.9406 205.925 18.6828Z" fill="white"/>
<path d="M90.7905 18.6081C90.7971 27.6124 83.7112 34.4172 74.2598 34.4841C64.7555 34.5517 57.3268 27.5246 57.396 18.5316C57.4644 9.63845 64.7201 2.68462 74.0306 2.58793C83.4409 2.48964 90.7839 9.50874 90.7905 18.6073V18.6081ZM81.3943 18.6492C81.4083 12.9563 77.213 9.12524 72.3723 10.4111C68.4407 11.4561 66.16 15.8623 67.0543 20.686C67.7615 24.4984 70.9942 27.1806 74.5969 26.9437C78.554 26.6835 81.3828 23.2311 81.3943 18.6492Z" fill="white"/>
<path d="M94.5679 3.02779H103.547C103.696 3.75935 103.858 4.54811 104.075 5.61161C107.418 3.12447 110.984 2.24386 114.964 2.74741C119.887 3.3702 122.935 5.51251 123.688 10.2862C124.417 14.9043 124.332 19.6506 124.494 24.3445C124.601 27.4512 124.515 30.5636 124.515 33.8217H115.127C115.127 29.4388 115.164 25.1599 115.112 20.8825C115.083 18.5339 114.944 16.1854 114.783 13.8408C114.625 11.5269 113.561 9.92281 110.991 9.66097C108.333 9.39026 105.815 9.69319 104.61 12.3801C104.03 13.6733 103.864 15.2226 103.843 16.6599C103.76 22.3214 103.809 27.9838 103.809 33.8097H94.5695V3.02779H94.5679Z" fill="white"/>
<path d="M193.701 8.42666C191.729 10.1863 189.744 11.9596 187.502 13.9609C185.781 11.4472 183.426 9.71575 180.337 10.2821C178.597 10.6012 176.701 11.5737 175.478 12.816C172.188 16.1596 172.895 22.6494 176.568 25.4974C179.869 28.0571 184.246 27.2659 187.528 23.3044C189.582 25.1059 191.625 26.8993 193.658 28.6823C189.82 33.8516 182.246 35.8126 175.141 33.5857C168.4 31.4724 164.114 25.7375 164.051 18.7474C163.987 11.6252 168.432 5.60838 175.375 3.41854C182.068 1.30685 189.942 3.41451 193.7 8.42746L193.701 8.42666Z" fill="white"/>
</g>
<defs>
<clipPath id="clip0_1020_662">
<rect width="230" height="38.7952" fill="white"/>
</clipPath>
</defs>
</svg>
