<svg width="243" height="24" viewBox="0 0 243 24" fill="none" xmlns="http://www.w3.org/2000/svg">
<path d="M231.226 23.3788H224.469V0.31543H231.631C233.831 0.31543 235.711 0.773395 237.273 1.68932C238.842 2.60525 240.043 3.91909 240.877 5.63082C241.71 7.34256 242.127 9.3959 242.127 11.7908C242.127 14.2083 241.699 16.2841 240.843 18.0184C239.995 19.7452 238.756 21.0702 237.127 21.9937C235.505 22.9171 233.538 23.3788 231.226 23.3788ZM226.575 21.4869H231.102C233.084 21.4869 234.743 21.0965 236.079 20.3157C237.416 19.5349 238.418 18.4201 239.086 16.9711C239.754 15.5221 240.088 13.7954 240.088 11.7908C240.081 9.80131 239.751 8.08957 239.097 6.65562C238.452 5.22166 237.491 4.12179 236.214 3.35602C234.946 2.59024 233.377 2.20735 231.507 2.20735H226.575V21.4869Z" fill="white"/>
<path d="M206.63 23.3788V0.31543H208.736V21.4869H219.727V23.3788H206.63Z" fill="white"/>
<path d="M200.498 0.31543V23.3788H198.393V0.31543H200.498Z" fill="white"/>
<path d="M190.166 0.31543H192.272V15.5859C192.272 17.155 191.904 18.5589 191.169 19.7977C190.433 21.029 189.408 22.0012 188.094 22.7144C186.788 23.4201 185.268 23.773 183.533 23.773C181.807 23.773 180.286 23.4164 178.972 22.7032C177.659 21.9899 176.634 21.0177 175.898 19.7864C175.162 18.5552 174.794 17.155 174.794 15.5859V0.31543H176.9V15.4395C176.9 16.6633 177.174 17.7556 177.722 18.7166C178.27 19.6701 179.04 20.4208 180.031 20.9689C181.03 21.517 182.197 21.791 183.533 21.791C184.87 21.791 186.037 21.517 187.036 20.9689C188.034 20.4208 188.804 19.6701 189.344 18.7166C189.892 17.7556 190.166 16.6633 190.166 15.4395V0.31543Z" fill="white"/>
<path d="M154.262 23.3788V0.31543H162.043C163.545 0.31543 164.795 0.578196 165.793 1.10373C166.799 1.62926 167.554 2.34624 168.057 3.25466C168.56 4.16309 168.811 5.19538 168.811 6.35156C168.811 7.31253 168.65 8.13462 168.327 8.81781C168.004 9.501 167.565 10.0528 167.01 10.4732C166.454 10.8937 165.835 11.1977 165.152 11.3854V11.5656C165.895 11.6182 166.616 11.8809 167.314 12.3539C168.012 12.8194 168.586 13.4725 169.037 14.3134C169.487 15.1542 169.712 16.1603 169.712 17.3315C169.712 18.4951 169.453 19.5349 168.935 20.4509C168.417 21.3593 167.622 22.0763 166.548 22.6018C165.482 23.1198 164.123 23.3788 162.471 23.3788H154.262ZM156.368 21.4869H162.471C164.251 21.4869 165.564 21.0928 166.413 20.3045C167.269 19.5162 167.697 18.5252 167.697 17.3315C167.697 16.4531 167.483 15.6573 167.055 14.944C166.634 14.2233 166.037 13.6527 165.264 13.2323C164.498 12.8119 163.597 12.6017 162.561 12.6017H156.368V21.4869ZM156.368 10.7323H162.235C163.143 10.7323 163.939 10.5446 164.622 10.1692C165.305 9.7938 165.838 9.27578 166.221 8.6151C166.604 7.95443 166.796 7.19992 166.796 6.35156C166.796 5.12781 166.398 4.13305 165.602 3.36728C164.806 2.59399 163.62 2.20735 162.043 2.20735H156.368V10.7323Z" fill="white"/>
<path d="M119.954 0.31543H125.416L130.675 10.248H130.9L136.159 0.31543H141.621L133.209 15.2256V23.3788H128.366V15.2256L119.954 0.31543Z" fill="white"/>
<path d="M113.403 7.77039C113.245 7.22233 113.023 6.73809 112.738 6.31766C112.453 5.88973 112.104 5.52936 111.691 5.23657C111.285 4.93626 110.82 4.70728 110.294 4.54962C109.776 4.39196 109.202 4.31313 108.571 4.31313C107.393 4.31313 106.357 4.60593 105.463 5.19152C104.577 5.77711 103.887 6.62923 103.391 7.74787C102.896 8.85899 102.648 10.2179 102.648 11.8245C102.648 13.4311 102.892 14.7975 103.38 15.9237C103.868 17.0498 104.559 17.9094 105.452 18.5025C106.345 19.0881 107.4 19.3809 108.616 19.3809C109.72 19.3809 110.662 19.1857 111.443 18.7953C112.231 18.3974 112.832 17.8381 113.245 17.1174C113.665 16.3966 113.876 15.5445 113.876 14.561L114.867 14.7074H108.92V11.0362H118.572V13.9417C118.572 15.9687 118.144 17.7105 117.288 19.167C116.432 20.6159 115.253 21.7346 113.752 22.5229C112.25 23.3037 110.531 23.6941 108.594 23.6941C106.432 23.6941 104.532 23.2173 102.896 22.2638C101.259 21.3029 99.9827 19.9402 99.0667 18.176C98.1583 16.4042 97.7041 14.302 97.7041 11.8695C97.7041 10.0002 97.9744 8.33346 98.5149 6.86947C99.063 5.39798 99.8288 4.15172 100.812 3.13068C101.796 2.10964 102.941 1.3326 104.247 0.799562C105.553 0.266521 106.969 0 108.493 0C109.799 0 111.015 0.191445 112.141 0.574334C113.267 0.949715 114.266 1.48276 115.137 2.17346C116.015 2.86416 116.732 3.68624 117.288 4.63971C117.843 5.58567 118.2 6.62923 118.358 7.77039H113.403Z" fill="white"/>
<path d="M94.0974 0.31543V23.3788H89.2212V0.31543H94.0974Z" fill="white"/>
<path d="M74.3257 23.3788H66.1499V0.31543H74.3933C76.7131 0.31543 78.7102 0.777148 80.3844 1.70059C82.0586 2.61651 83.3461 3.9341 84.247 5.65335C85.1554 7.37259 85.6097 9.42968 85.6097 11.8246C85.6097 14.2271 85.1554 16.2916 84.247 18.0184C83.3461 19.7452 82.051 21.0702 80.3618 21.9937C78.6801 22.9171 76.6681 23.3788 74.3257 23.3788ZM71.0261 19.2009H74.123C75.5645 19.2009 76.7769 18.9456 77.7604 18.4351C78.7514 17.917 79.4947 17.1175 79.9902 16.0364C80.4932 14.9478 80.7447 13.5439 80.7447 11.8246C80.7447 10.1204 80.4932 8.72772 79.9902 7.64662C79.4947 6.56552 78.7552 5.76972 77.7717 5.2592C76.7882 4.74868 75.5757 4.49342 74.1343 4.49342H71.0261V19.2009Z" fill="white"/>
<path d="M62.5379 11.847C62.5379 14.3621 62.0612 16.5018 61.1077 18.266C60.1617 20.0303 58.8704 21.378 57.2338 22.3089C55.6046 23.2323 53.7728 23.6941 51.7382 23.6941C49.6886 23.6941 47.8492 23.2286 46.2201 22.2976C44.5909 21.3667 43.3034 20.0191 42.3574 18.2548C41.4115 16.4905 40.9385 14.3546 40.9385 11.847C40.9385 9.33197 41.4115 7.1923 42.3574 5.42801C43.3034 3.66372 44.5909 2.31985 46.2201 1.39642C47.8492 0.465473 49.6886 0 51.7382 0C53.7728 0 55.6046 0.465473 57.2338 1.39642C58.8704 2.31985 60.1617 3.66372 61.1077 5.42801C62.0612 7.1923 62.5379 9.33197 62.5379 11.847ZM57.5941 11.847C57.5941 10.2179 57.3501 8.84398 56.8621 7.72534C56.3817 6.60671 55.7022 5.75835 54.8238 5.18026C53.9454 4.60217 52.9169 4.31313 51.7382 4.31313C50.5595 4.31313 49.5309 4.60217 48.6526 5.18026C47.7742 5.75835 47.091 6.60671 46.603 7.72534C46.1225 8.84398 45.8822 10.2179 45.8822 11.847C45.8822 13.4762 46.1225 14.8501 46.603 15.9687C47.091 17.0873 47.7742 17.9357 48.6526 18.5138C49.5309 19.0919 50.5595 19.3809 51.7382 19.3809C52.9169 19.3809 53.9454 19.0919 54.8238 18.5138C55.7022 17.9357 56.3817 17.0873 56.8621 15.9687C57.3501 14.8501 57.5941 13.4762 57.5941 11.847Z" fill="white"/>
<path d="M20.5322 23.3788V0.31543H29.6315C31.3732 0.31543 32.8597 0.626996 34.091 1.25013C35.3297 1.86575 36.272 2.74039 36.9176 3.87404C37.5708 5.00018 37.8974 6.32528 37.8974 7.84933C37.8974 9.38088 37.567 10.6985 36.9064 11.8021C36.2457 12.8982 35.2885 13.7391 34.0347 14.3247C32.7884 14.9102 31.2794 15.203 29.5076 15.203H23.4152V11.2841H28.7193C29.6502 11.2841 30.4235 11.1564 31.0391 10.9012C31.6548 10.6459 32.1127 10.263 32.413 9.75251C32.7209 9.24199 32.8748 8.6076 32.8748 7.84933C32.8748 7.08355 32.7209 6.43789 32.413 5.91236C32.1127 5.38683 31.651 4.98892 31.0279 4.71865C30.4123 4.44087 29.6352 4.30198 28.6968 4.30198H25.4084V23.3788H20.5322ZM32.9874 12.8832L38.7194 23.3788H33.3365L27.7283 12.8832H32.9874Z" fill="white"/>
<path d="M0 23.3788V0.31543H9.09924C10.8485 0.31543 12.3388 0.649518 13.57 1.3177C14.8013 1.97837 15.7397 2.89805 16.3854 4.07675C17.0385 5.24794 17.3651 6.59931 17.3651 8.13086C17.3651 9.66242 17.0348 11.0138 16.3741 12.185C15.7135 13.3562 14.7562 14.2683 13.5025 14.9215C12.2562 15.5747 10.7472 15.9013 8.97536 15.9013H3.17572V11.9935H8.18706C9.12551 11.9935 9.8988 11.8321 10.5069 11.5093C11.1225 11.179 11.5805 10.7247 11.8808 10.1467C12.1886 9.56107 12.3425 8.88913 12.3425 8.13086C12.3425 7.36509 12.1886 6.69691 11.8808 6.12633C11.5805 5.54824 11.1225 5.10154 10.5069 4.78622C9.89129 4.46339 9.1105 4.30198 8.16454 4.30198H4.8762V23.3788H0Z" fill="white"/>
</svg>
