<svg width="230" height="31" viewBox="0 0 230 31" fill="none" xmlns="http://www.w3.org/2000/svg">
<g clip-path="url(#clip0_1022_534)">
<g clip-path="url(#clip1_1022_534)">
<g clip-path="url(#clip2_1022_534)">
<path fill-rule="evenodd" clip-rule="evenodd" d="M96.5342 29.7105V12.9567H100.004V14.927H100.555C100.828 14.2266 101.269 13.7105 101.876 13.3807C102.482 13.053 105.341 12.8892 106.236 12.8892H108.262V16.0494H103.989C102.844 16.0494 101.905 16.3607 101.172 16.9834C100.439 17.606 100.072 18.5645 100.072 19.8549V29.7105H96.5342Z" fill="white"/>
<path fill-rule="evenodd" clip-rule="evenodd" d="M113.04 19.6176H122.417C122.328 18.3498 121.868 17.3585 121.044 16.6437C120.22 15.9289 119.143 15.5726 117.814 15.5726C116.487 15.5726 115.404 15.9289 114.57 16.6437C113.732 17.3585 113.222 18.3498 113.04 19.6176ZM117.986 30.186C116.27 30.186 114.767 29.8296 113.485 29.1169C112.204 28.4021 111.202 27.3944 110.479 26.0918C109.759 24.7892 109.398 23.2756 109.398 21.5552V21.1476C109.398 19.4026 109.752 17.8788 110.463 16.5761C111.173 15.2735 112.162 14.2659 113.433 13.5511C114.707 12.8383 116.177 12.4819 117.847 12.4819C119.475 12.4819 120.901 12.8383 122.125 13.5511C123.35 14.2659 124.307 15.2572 124.994 16.5249C125.681 17.7927 126.025 19.2776 126.025 20.9776V22.3007H113.003C113.05 23.7753 113.549 24.9489 114.5 25.8194C115.45 26.6919 116.634 27.1281 118.054 27.1281C119.384 27.1281 120.383 26.8332 121.06 26.2433C121.737 25.6555 122.257 24.9755 122.624 24.2054L125.545 25.7006C125.224 26.3355 124.758 27.0032 124.151 27.7057C123.545 28.4082 122.75 28.996 121.764 29.4732C120.781 29.9484 119.52 30.186 117.986 30.186Z" fill="white"/>
<path fill-rule="evenodd" clip-rule="evenodd" d="M136.362 30.1866C134.209 30.1866 132.422 29.7114 131.004 28.759C129.584 27.8087 128.715 26.3688 128.392 24.4436L131.692 23.6612C131.876 24.5911 132.182 25.3284 132.619 25.8711C133.052 26.4139 133.598 26.801 134.253 27.0263C134.903 27.2516 135.607 27.3663 136.362 27.3663C137.486 27.3663 138.35 27.1512 138.956 26.7191C139.563 26.289 139.867 25.736 139.867 25.056C139.867 24.376 139.58 23.8763 139.006 23.5609C138.437 23.2413 137.586 22.9833 136.466 22.7785L135.298 22.5737C134.153 22.3709 133.112 22.076 132.172 21.6909C131.232 21.3059 130.489 20.7733 129.938 20.0934C129.389 19.4134 129.116 18.5429 129.116 17.4779C129.116 15.8906 129.708 14.6617 130.903 13.7892C132.091 12.9188 133.673 12.4805 135.642 12.4805C137.542 12.4805 139.105 12.9065 140.331 13.7565C141.557 14.6064 142.35 15.7554 142.72 17.2055L139.42 18.1231C139.213 17.1031 138.78 16.3842 138.116 15.9643C137.449 15.5465 136.625 15.3356 135.642 15.3356C134.679 15.3356 133.926 15.5117 133.375 15.8619C132.826 16.2142 132.549 16.7078 132.549 17.3407C132.549 18.0207 132.82 18.5184 133.356 18.8358C133.894 19.1533 134.623 19.3909 135.538 19.5506L136.739 19.7534C137.956 19.9582 139.066 20.2408 140.072 20.6034C141.081 20.9659 141.878 21.4881 142.459 22.1661C143.043 22.8461 143.337 23.7534 143.337 24.886C143.337 26.5614 142.706 27.864 141.447 28.7918C140.186 29.7216 138.493 30.1866 136.362 30.1866Z" fill="white"/>
<path fill-rule="evenodd" clip-rule="evenodd" d="M146.599 29.7098H150.137V12.9561H146.599V29.7098ZM148.386 10.6786C147.699 10.6786 147.121 10.4595 146.653 10.0171C146.183 9.57672 145.949 9.00324 145.949 8.30073C145.949 7.59822 146.183 7.02679 146.653 6.5844C147.121 6.14405 147.699 5.92285 148.386 5.92285C149.096 5.92285 149.68 6.14405 150.14 6.5844C150.597 7.02679 150.827 7.59822 150.827 8.30073C150.827 9.00324 150.597 9.57672 150.14 10.0171C149.68 10.4595 149.096 10.6786 148.386 10.6786Z" fill="white"/>
<path fill-rule="evenodd" clip-rule="evenodd" d="M153.982 29.7107V12.957H157.452V14.9273H157.999C158.322 14.3395 158.835 13.8192 159.545 13.3645C160.255 12.9119 161.218 12.6846 162.431 12.6846C163.692 12.6846 164.702 12.9406 165.473 13.4485C166.239 13.9585 166.816 14.6098 167.208 15.4045H167.756C168.145 14.6344 168.713 13.9892 169.456 13.467C170.199 12.9467 171.261 12.6846 172.634 12.6846C173.733 12.6846 174.706 12.9058 175.555 13.3482C176.4 13.7885 177.077 14.448 177.58 15.3185C178.085 16.191 178.338 17.2724 178.338 18.5648V29.7107H174.797V18.8372C174.797 17.8151 174.518 17.0287 173.957 16.4757C173.394 15.9186 172.601 15.6421 171.57 15.6421C170.47 15.6421 169.586 15.9943 168.924 16.6948C168.259 17.3973 167.93 18.407 167.93 19.7199V29.7107H164.39V18.8372C164.39 17.8151 164.108 17.0287 163.549 16.4757C162.986 15.9186 162.189 15.6421 161.162 15.6421C160.063 15.6421 159.179 15.9943 158.516 16.6948C157.852 17.3973 157.519 18.407 157.519 19.7199V29.7107H153.982Z" fill="white"/>
<path fill-rule="evenodd" clip-rule="evenodd" d="M188.334 27.2981C189.752 27.2981 190.897 26.8967 191.767 26.0918C192.638 25.2868 193.073 24.185 193.073 22.7779V22.4399H188.127C187.187 22.4399 186.43 22.6366 185.86 23.0339C185.287 23.4312 185.001 24.015 185.001 24.783C185.001 25.5551 185.299 26.1655 185.893 26.6202C186.49 27.0728 187.303 27.2981 188.334 27.2981ZM187.817 30.186C186.603 30.186 185.523 29.9832 184.572 29.5756C183.62 29.1681 182.867 28.568 182.303 27.7733C181.742 26.9807 181.463 26.018 181.463 24.8854C181.463 23.7303 181.742 22.7738 182.303 22.0139C182.867 21.2561 183.633 20.6826 184.606 20.2976C185.579 19.9126 186.684 19.72 187.92 19.72H193.073V18.6325C193.073 17.6596 192.777 16.8772 192.181 16.2874C191.585 15.6995 190.667 15.4046 189.434 15.4046C188.216 15.4046 187.291 15.6893 186.649 16.2546C186.009 16.8199 185.583 17.5572 185.38 18.4625L182.08 17.4077C182.355 16.5024 182.796 15.6811 183.403 14.9458C184.009 14.2106 184.817 13.6145 185.823 13.1599C186.833 12.7093 188.046 12.4819 189.467 12.4819C191.663 12.4819 193.394 13.037 194.655 14.1471C195.914 15.2571 196.541 16.8322 196.541 18.8701V25.7682C196.541 26.4481 196.864 26.7881 197.504 26.7881H198.949V29.7108H196.301C195.5 29.7108 194.847 29.508 194.344 29.1005C193.841 28.6929 193.591 28.1358 193.591 27.4333V27.3329H193.073C192.891 27.6709 192.614 28.0682 192.247 28.5229C191.883 28.9755 191.344 29.3647 190.634 29.6944C189.924 30.0221 188.986 30.186 187.817 30.186Z" fill="white"/>
<path fill-rule="evenodd" clip-rule="evenodd" d="M206.322 29.7104C205.293 29.7104 204.473 29.4052 203.867 28.7928C203.26 28.1805 202.956 27.3653 202.956 26.3453V15.9121H198.2V12.9567H202.956V7.4165H206.496V12.9567H212.289V15.9121H206.496V25.735C206.496 26.4129 206.815 26.7549 207.457 26.7549H210.997V29.7104H206.322Z" fill="white"/>
<path fill-rule="evenodd" clip-rule="evenodd" d="M217.003 19.6176H226.38C226.291 18.3498 225.831 17.3585 225.007 16.6437C224.183 15.9289 223.107 15.5726 221.778 15.5726C220.451 15.5726 219.368 15.9289 218.533 16.6437C217.695 17.3585 217.186 18.3498 217.003 19.6176ZM221.949 30.186C220.233 30.186 218.73 29.8296 217.449 29.1169C216.167 28.4021 215.165 27.3944 214.443 26.0918C213.722 24.7892 213.362 23.2756 213.362 21.5552V21.1476C213.362 19.4026 213.716 17.8788 214.426 16.5761C215.136 15.2735 216.126 14.2659 217.397 13.5511C218.67 12.8383 220.14 12.4819 221.811 12.4819C223.438 12.4819 224.864 12.8383 226.088 13.5511C227.314 14.2659 228.27 15.2572 228.957 16.5249C229.645 17.7927 229.988 19.2776 229.988 20.9776V22.3007H216.966C217.014 23.7753 217.513 24.9489 218.463 25.8194C219.413 26.6919 220.598 27.1281 222.018 27.1281C223.347 27.1281 224.347 26.8332 225.024 26.2433C225.701 25.6555 226.221 24.9755 226.587 24.2054L229.508 25.7006C229.187 26.3355 228.721 27.0032 228.115 27.7057C227.508 28.4082 226.713 28.996 225.728 29.4732C224.744 29.9484 223.484 30.186 221.949 30.186Z" fill="white"/>
<path fill-rule="evenodd" clip-rule="evenodd" d="M27.6901 9.78522L26.7378 9.53125V10.4734V29.2445V30.1498V30.1866H44.2091V30.1498V29.2445V14.8216L27.6901 9.78522Z" fill="#EFEFEF"/>
<path fill-rule="evenodd" clip-rule="evenodd" d="M26.738 9.53193V30.1505H0V14.2795L12.1962 5.0752L26.738 9.53193Z" fill="white"/>
<path fill-rule="evenodd" clip-rule="evenodd" d="M73.1458 14.6349V30.1863H44.2091V15.2718C44.2091 15.0056 44.0331 14.768 43.7744 14.6902L27.6901 9.7849L26.7378 9.53093V0.000976562L73.1458 14.6349Z" fill="white"/>
</g>
</g>
</g>
<defs>
<clipPath id="clip0_1022_534">
<rect width="229.988" height="30.1888" fill="white"/>
</clipPath>
<clipPath id="clip1_1022_534">
<rect width="229.988" height="30.1888" fill="white"/>
</clipPath>
<clipPath id="clip2_1022_534">
<rect width="229.988" height="30.186" fill="white" transform="translate(0 0.000976562)"/>
</clipPath>
</defs>
</svg>
