<svg width="233" height="48" viewBox="0 0 233 48" fill="none" xmlns="http://www.w3.org/2000/svg">
<path d="M232.34 16.2744L224.258 38.0501C223.098 41.1555 221.265 42.4277 217.598 42.4277C216.513 42.4277 215.428 42.3528 214.343 42.2406V37.863C215.353 37.9378 216.401 38.0875 217.448 38.0501C219.282 37.863 219.88 35.9548 219.282 34.4208L212.472 16.2744H218.159L222.537 29.5194H222.612L226.84 16.2744H232.34Z" fill="white"/>
<path d="M205.65 35.6183V33.1489H205.576C204.341 35.2441 202.171 36.1421 199.701 36.1421C193.865 36.1421 191.021 31.1284 191.021 25.7781C191.021 20.5774 193.902 15.7508 199.589 15.7508C201.871 15.7508 204.116 16.7236 205.314 18.6318H205.388V8.90381H210.701V35.6183H205.65ZM205.576 25.8903C205.576 22.7474 204.453 19.7542 201.011 19.7542C197.531 19.7542 196.334 22.7474 196.334 25.9277C196.334 28.9584 197.718 32.1387 201.011 32.1387C204.528 32.1387 205.576 29.0706 205.576 25.8903Z" fill="white"/>
<path d="M182.778 35.6183V33.1489H182.703C181.468 35.2441 179.298 36.1421 176.829 36.1421C170.992 36.1421 168.148 31.1284 168.148 25.7781C168.148 20.5774 171.029 15.7508 176.717 15.7508C178.999 15.7508 181.244 16.7236 182.441 18.6318H182.516V8.90381H187.829V35.6183H182.778ZM182.703 25.8903C182.703 22.7474 181.58 19.7542 178.138 19.7542C174.659 19.7542 173.461 22.7474 173.461 25.9277C173.461 28.9584 174.846 32.1387 178.138 32.1387C181.655 32.1387 182.703 29.0706 182.703 25.8903Z" fill="white"/>
<path d="M164.939 16.2744V35.6181H159.888V32.9242H159.776C158.429 35.0943 156.109 36.1419 153.864 36.1419C148.214 36.1419 146.792 32.9616 146.792 28.1725V16.2744H152.105V27.1997C152.105 30.38 153.041 31.9514 155.51 31.9514C158.391 31.9514 159.626 30.3425 159.626 26.4139V16.2744H164.939Z" fill="white"/>
<path d="M126.884 23.7202V31.0536H133.17C135.49 31.0536 137.51 30.3053 137.51 27.5366C137.51 24.8053 135.789 23.7202 133.282 23.7202H126.884ZM121.01 35.6183V8.90381H133.582C138.67 8.90381 142.112 10.5501 142.112 15.5263C142.112 18.1454 140.803 19.9787 138.483 21.1012C141.738 22.0366 143.385 24.5434 143.385 27.8733C143.385 33.2985 138.782 35.6183 133.956 35.6183H121.01ZM126.884 13.4685V19.7168H132.833C134.891 19.7168 136.425 18.7814 136.425 16.5365C136.425 13.9923 134.48 13.4685 132.384 13.4685H126.884Z" fill="white"/>
<path d="M112.7 28.8831V25.628C111.465 26.5259 109.07 26.5634 106.938 26.9375C104.842 27.3117 103.047 28.06 103.047 30.4171C103.047 32.5124 104.843 33.2607 106.788 33.2607C110.979 33.2607 112.7 30.6416 112.7 28.8831ZM117.863 33.0736V35.543C117.302 35.8798 116.591 36.0668 115.581 36.0668C113.934 36.0668 112.887 35.1689 112.887 33.0736C111.128 35.1314 108.771 36.0668 106.077 36.0668C102.56 36.0668 99.6792 34.4954 99.6792 30.6416C99.6792 26.264 102.934 25.3287 106.227 24.6926C109.744 24.0191 112.737 24.2436 112.737 21.849C112.737 19.0803 110.455 18.6313 108.434 18.6313C105.74 18.6313 103.757 19.4545 103.608 22.298H100.428C100.615 17.5089 104.319 15.8252 108.621 15.8252C112.101 15.8252 115.88 16.6109 115.88 21.1382V31.0906C115.88 32.5872 115.88 33.2607 116.89 33.2607C117.152 33.2607 117.451 33.2233 117.863 33.0736Z" fill="white"/>
<path d="M93.9879 29.4818H97.1307C96.2702 33.7471 93.2021 36.0668 88.862 36.0668C82.6885 36.0668 79.7701 31.8015 79.583 25.8899C79.583 20.0905 83.3994 15.8252 88.6749 15.8252C95.5219 15.8252 97.6171 22.2232 97.4301 26.9001H82.9504C82.8381 30.2675 84.7463 33.2607 88.9742 33.2607C91.5933 33.2607 93.4266 31.9886 93.9879 29.4818ZM82.9504 24.094H94.0627C93.913 21.0633 91.6307 18.6313 88.4878 18.6313C85.1579 18.6313 83.1749 21.1382 82.9504 24.094Z" fill="white"/>
<path d="M75.7128 16.7229H72.3454C71.9338 12.9066 69.3896 11.2603 65.7229 11.2603C62.7297 11.2603 59.7365 12.3453 59.7365 15.825C59.7365 19.1175 64.0018 19.6039 68.3046 20.5767C72.5699 21.5495 76.8352 23.0461 76.8352 28.2842C76.8352 33.9713 71.2604 36.2537 66.3964 36.2537C60.4099 36.2537 55.3589 33.3353 55.3589 26.825H58.7263C58.7263 31.3149 62.4678 33.2605 66.5086 33.2605C69.7263 33.2605 73.2808 32.2502 73.2808 28.3965C73.2808 24.7298 69.0154 24.0937 64.7501 23.1583C60.4848 22.223 56.182 20.9883 56.182 16.0869C56.182 10.6617 61.0086 8.26709 65.8726 8.26709C71.3352 8.26709 75.4883 10.8487 75.7128 16.7229Z" fill="white"/>
<g clip-path="url(#clip0_1017_606)">
<path d="M45.7671 33.5077C45.646 34.2018 45.3127 34.7816 45.0048 35.3708C43.8652 37.5497 42.3801 39.4306 40.2839 40.7805C38.2722 42.076 36.0455 42.6727 33.6771 42.7972C30.3342 42.9724 27.1998 42.179 24.1836 40.7842C20.3817 39.025 16.9666 36.6748 13.7148 34.0669C12.6287 33.1957 11.5369 32.3386 10.2377 31.7878C7.4797 30.6197 3.86462 31.8094 2.95968 35.2266C2.93621 35.3146 2.89584 35.398 2.84421 35.532C2.43211 35.1367 2.29224 34.6318 2.08102 34.1831C1.11881 32.1372 0.423207 30.0024 0.119995 27.758C-0.206686 25.3347 0.0815065 23.0172 1.52716 20.9583C2.7663 19.1944 4.50484 18.2493 6.62639 17.9673C9.03895 17.6469 11.1605 18.4207 13.1375 19.7096C15.0685 20.9686 16.5827 22.6828 18.171 24.3193C20.0213 26.2246 21.8678 28.1355 23.825 29.9341C25.2528 31.2455 26.7407 32.481 28.3685 33.5423C30.5952 34.9943 32.9834 36.05 35.6297 36.4434C39.2907 36.9876 42.5829 36.1643 45.4338 33.7512C45.538 33.6622 45.6554 33.5882 45.7662 33.5067L45.7671 33.5077Z" fill="white"/>
<path d="M47.5903 20.8022C46.9144 20.2776 46.2855 19.8477 45.5664 19.5695C44.1095 19.0065 42.6375 18.9409 41.1646 19.4842C40.7957 19.6201 40.699 19.518 40.5901 19.1676C39.0778 14.2779 36.0495 10.6387 31.4534 8.35773C28.4832 6.88425 25.315 6.37842 22.0134 6.71751C17.7591 7.15403 14.1844 8.98441 11.2142 12.0119C10.1384 13.1079 9.2419 14.3528 8.52282 15.7139C8.36887 16.0043 8.18112 16.1082 7.85914 16.1054C4.98378 16.0755 2.5393 17.0647 0.589545 19.2041C0.520078 19.28 0.462815 19.3906 0.327637 19.3709C1.58273 10.7558 10.0548 0.221279 23.4122 0.00395735C37.6378 -0.227415 46.7192 11.1595 47.5903 20.8022Z" fill="white"/>
<path d="M32.8438 25.3692C32.8438 24.8606 32.8354 24.4587 32.8448 24.0587C32.933 20.2537 30.4557 16.8881 27.019 15.5766C23.1776 14.1116 18.6923 15.5232 16.3999 18.932C16.3389 19.0229 16.2704 19.11 16.2197 19.2065C16.0582 19.5156 15.9033 19.5428 15.6133 19.302C14.1592 18.0927 12.5661 17.1138 10.7356 16.578C10.2756 16.4431 10.2625 16.2736 10.4925 15.9026C12.0996 13.3182 14.2427 11.3126 16.9932 9.99746C21.5574 7.81488 26.176 7.80645 30.7044 10.0096C34.9184 12.0592 37.6267 15.4492 38.9344 19.9502C39.0705 20.4195 38.9344 20.6696 38.5542 20.961C37.1395 22.041 35.7661 23.1745 34.3674 24.2751C33.9027 24.6405 33.4071 24.9664 32.8429 25.3702L32.8438 25.3692Z" fill="white"/>
<path d="M36.5985 44.3579C36.1329 44.6286 35.6757 44.9181 35.1989 45.1682C32.3864 46.6444 29.4106 47.5634 26.2377 47.8763C21.635 48.3306 17.2643 47.5343 13.1338 45.4951C10.3617 44.1275 7.90127 42.3111 5.90927 39.929C4.94988 38.7806 4.40353 37.4589 4.67765 35.9029C4.99776 34.0829 6.83487 32.8342 8.6579 33.2014C10.097 33.4909 11.1962 34.3723 12.2899 35.2557C16.2316 38.4406 20.3837 41.2892 25.1365 43.1495C27.3904 44.0319 29.7251 44.5864 32.1705 44.5827C33.6368 44.5799 35.105 44.623 36.5403 44.2071C36.56 44.2577 36.5788 44.3073 36.5985 44.3579Z" fill="white"/>
<path d="M25.6792 28.9853C26.723 29.1483 27.7265 29.1267 28.7394 28.9806C30.37 28.7464 31.8166 28.071 33.2088 27.2476C35.2355 26.0486 36.9975 24.4993 38.8131 23.0192C39.6007 22.3766 40.4249 21.7884 41.3495 21.349C43.8278 20.1744 46.8346 21.5486 47.5715 24.1883C48.0155 25.777 47.7696 27.2973 47.0608 28.7342C45.4283 32.0437 42.8243 34.1326 39.1275 34.6975C36.7938 35.0544 34.5521 34.5645 32.4015 33.6596C29.9683 32.6357 27.8721 31.0911 25.9026 29.3619C25.8125 29.2832 25.6979 29.2148 25.6782 28.9834L25.6792 28.9853Z" fill="white"/>
<path d="M27.4788 27.2579C24.8935 27.2766 22.9691 26.4205 21.3554 24.9001C20.0834 23.7021 18.9062 22.4037 17.6755 21.1616C17.4427 20.9265 17.4465 20.7195 17.6004 20.4572C18.7063 18.5735 20.3303 17.3969 22.4678 16.9595C25.7881 16.2785 29.1244 18.0835 30.4508 21.2085C31.1399 22.8337 31.1952 24.4692 30.7184 26.1479C30.6301 26.4589 30.4611 26.6443 30.1457 26.7596C29.1779 27.1136 28.1838 27.2738 27.4797 27.2588L27.4788 27.2579Z" fill="white"/>
</g>
<defs>
<clipPath id="clip0_1017_606">
<rect width="47.794" height="48" fill="white"/>
</clipPath>
</defs>
</svg>
