<svg width="151" height="48" viewBox="0 0 151 48" fill="none" xmlns="http://www.w3.org/2000/svg">
<g clip-path="url(#clip0_1020_623)">
<path d="M54.6999 0.162363C54.7431 2.87585 54.6655 5.59347 54.7045 8.30742C54.7082 8.55832 54.8597 8.84828 54.525 8.9967L45.3197 9.01555C44.7381 9.04725 43.9279 9.48518 43.624 9.98192C43.5693 10.0711 43.6217 10.2103 43.5914 10.3165C43.5698 10.3927 43.4541 10.446 43.4266 10.5651C43.2953 11.1376 43.4261 12.7101 43.4192 13.404C43.4165 13.6733 43.2691 13.9605 43.635 14.1025L51.818 14.1342C51.9277 14.1737 51.9782 14.2564 51.9961 14.3695C52.1366 15.2577 51.8749 16.4961 51.997 17.3991C52.0094 17.4905 52.0466 17.6054 52.16 17.605C52.2445 17.6045 53.1754 16.571 53.3544 16.4111C55.6382 14.369 58.8571 13.007 61.8946 12.6508C68.2033 11.911 74.5345 13.7417 78.0665 19.2785C78.3176 19.6724 78.5732 20.2964 78.8257 20.6309C78.867 20.6861 78.9322 20.7734 79.0061 20.7734C79.193 20.7734 79.506 19.971 79.6176 19.7767C81.9496 15.7296 86.2692 13.2478 90.8514 12.6508C97.0812 11.8393 103.634 13.8208 107.088 19.3066C107.323 19.6806 107.527 20.17 107.765 20.5114C107.808 20.5739 107.881 20.6815 107.963 20.6815C108.229 20.596 108.212 20.2996 108.299 20.0974C109.509 17.287 111.825 14.8069 114.655 13.6016C118.7 11.8798 124.026 12.4413 127.21 15.612C127.367 15.7692 127.764 16.299 127.878 16.3665C128.266 16.5949 128.133 16.043 128.131 15.884C128.08 12.7023 128.173 9.51551 128.134 6.33285C128.258 5.38255 128.678 4.41801 129.302 3.6915C131.45 1.19353 135.107 2.3837 137.977 2.04687L138.297 2.22333L138.287 41.1923L138.172 41.3072L128.452 41.3205C128.285 41.2626 128.261 41.1413 128.251 40.9805C128.193 40.0536 128.32 39.073 128.316 38.1498C128.313 37.415 127.821 38.176 127.697 38.3116C122.037 44.4522 111.934 42.2906 108.497 34.884C108.388 34.6473 108.184 33.9828 108.073 33.8395C107.804 33.4925 107.548 34.3399 107.459 34.5012C105.372 38.2794 101.317 41.0057 97.0807 41.7488C90.2129 42.9537 83.0857 40.9281 79.5249 34.623C79.3904 34.3849 79.2848 34.0559 79.1493 33.851C79.0695 33.7296 79.0098 33.6552 78.8643 33.7627C78.7784 33.8261 78.436 34.6032 78.3304 34.7893C76.6787 37.7123 73.4379 40.248 70.2369 41.2465C63.0964 43.4743 54.2193 41.355 50.4592 34.5012C48.7617 31.4068 48.2668 27.084 49.0743 23.6555C49.1294 23.4225 49.4498 22.9023 49.1514 22.7705L43.5051 22.7668C43.192 22.9125 43.3674 23.2902 43.3724 23.548C43.483 29.361 43.2834 35.1854 43.3724 40.9993C43.3756 41.1206 43.3394 41.2534 43.2218 41.3076L33.6213 41.3389C33.4905 41.3155 33.3601 41.2378 33.3638 41.0912C33.3266 34.7709 33.3991 28.4405 33.4161 22.1271C33.4165 21.9419 33.3798 21.7177 33.1572 21.8721L21.8843 42.3659C19.9797 45.3041 17.5839 47.1243 14.0171 47.718C13.7899 47.7557 13.486 47.7387 13.2473 47.7741C12.9035 47.8251 12.533 47.9629 12.1809 47.9928C11.5286 48.0489 10.061 47.7814 9.36419 47.655C8.11282 47.4276 6.49284 46.8183 5.42188 46.1354C2.9779 44.5776 1.25922 42.0944 0.438435 39.3216C0.292916 38.8258 -0.00408879 37.756 4.26583e-05 37.2767C0.00141981 37.1329 0.0390619 36.9702 0.207533 36.9762L7.70519 36.9601C8.06921 37.0345 8.04672 37.3305 8.17893 37.5919C9.48079 40.1657 12.7162 40.957 14.6878 38.653C14.8783 38.4306 15.2813 37.8883 15.2382 37.6016L1.14308 17.1289C0.320459 15.9043 1.23167 14.2206 2.64325 14.0685C4.58962 14.1516 6.62918 13.9559 8.56453 14.0657C10.3039 14.1645 11.4905 14.8915 12.505 16.2756C14.9224 19.5745 17.0409 23.2323 19.4238 26.5707C19.5661 26.8166 19.7598 26.7844 19.8829 26.5413C21.5533 23.3086 23.0273 19.9596 24.7318 16.7461C25.2918 15.6906 25.7729 15.0785 26.8494 14.5027C28.6218 13.5543 31.2094 14.2509 33.1613 14.0225C33.2733 14.0092 33.3661 13.9779 33.4358 13.8837L33.4569 6.97204C34.0532 2.85058 36.9811 0.31033 41.1015 0.111815C45.1981 -0.0853202 49.6068 0.0208297 53.7198 0.100787C54.0338 0.106761 54.3823 -0.0232845 54.6999 0.162363ZM64.3344 20.9687C56.5742 21.4291 57.1485 33.5399 64.5502 33.5399C72.3136 33.5399 71.9955 20.5142 64.3344 20.9687ZM89.4991 32.1043C89.5133 32.1213 89.6065 32.119 89.6529 32.1558C91.3247 33.4907 93.3468 33.9084 95.4015 33.1805C100.18 31.4876 100.381 23.3835 95.7187 21.4057C94.0359 20.692 91.8104 20.8671 90.2758 21.8537C90.1698 21.9217 89.5294 22.3495 89.4995 22.3863C89.4743 22.4176 89.5087 22.503 89.4821 22.5508C89.4669 22.5788 89.0933 22.8775 89.0093 22.9745C87.1157 25.1595 87.2171 29.8283 89.3104 31.8575C89.3595 31.9053 89.4697 31.9127 89.4848 31.9361C89.5106 31.9775 89.472 32.0712 89.4986 32.1038L89.4991 32.1043ZM121.24 20.9687C117 21.2127 115.135 24.8562 115.848 28.7695C116.916 34.6372 124.896 35.2452 126.757 29.7019C128.103 25.6912 125.987 20.6953 121.24 20.9682L121.24 20.9687Z" fill="white"/>
<path d="M145.195 0.0780085C146.894 -0.0947724 148.447 0.325232 149.612 1.60133C150.322 2.3793 150.669 3.44861 150.885 4.46003C151.03 5.14426 150.635 6.36475 150.323 6.99797C148.558 10.5832 142.967 10.5009 141.42 6.76592C140.202 3.82267 141.965 0.406108 145.196 0.077549L145.195 0.0780085ZM149.972 4.83729C149.972 2.60309 148.162 0.791649 145.929 0.791649C143.696 0.791649 141.886 2.60263 141.886 4.83729C141.886 7.07196 143.696 8.88294 145.929 8.88294C148.162 8.88294 149.972 7.07196 149.972 4.83729Z" fill="white"/>
<path d="M144.278 2.46313C144.446 2.44383 144.534 2.49806 144.675 2.49989C145.842 2.51368 147.752 2.15157 148.084 3.68041C148.161 4.03332 148.135 4.44138 147.942 4.75432C147.815 4.96018 147.448 5.18121 147.456 5.40868C147.463 5.62098 147.953 6.25144 148.029 6.53681C148.053 6.62642 148.082 6.7151 148.005 6.79184C147.903 6.89524 146.839 6.88697 146.686 6.82447C146.261 6.65215 146.14 5.21292 145.546 5.57089C145.27 5.7377 145.601 6.62733 145.315 6.80839C145.162 6.90489 144.145 6.90121 144.009 6.74681C143.859 6.57541 143.968 6.41182 143.968 6.24134C143.97 5.23038 143.978 4.21759 143.968 3.2071C143.965 2.89416 143.793 2.51781 144.278 2.46267V2.46313ZM145.789 3.56507C145.466 3.62251 145.445 3.93499 145.484 4.21575C145.579 4.89861 147.002 4.50617 146.896 3.9552C146.814 3.53015 146.116 3.50671 145.79 3.56507H145.789Z" fill="white"/>
</g>
<defs>
<clipPath id="clip0_1020_623">
<rect width="150.915" height="48" fill="white"/>
</clipPath>
</defs>
</svg>
